{
 "metadata": {
  "name": "",
  "signature": "sha256:75697e75626bc1469ad01040dc4e7aa9bd51ab3dc1afcdb70d37d2876b7bd005"
 },
 "nbformat": 3,
 "nbformat_minor": 0,
 "worksheets": [
  {
   "cells": [
    {
     "cell_type": "code",
     "collapsed": false,
     "input": [
      "import midi"
     ],
     "language": "python",
     "metadata": {},
     "outputs": [],
     "prompt_number": 1
    },
    {
     "cell_type": "code",
     "collapsed": false,
     "input": [
      "midi.BEATNAMES"
     ],
     "language": "python",
     "metadata": {},
     "outputs": [
      {
       "metadata": {},
       "output_type": "pyout",
       "prompt_number": 2,
       "text": [
        "['whole',\n",
        " 'half',\n",
        " 'quarter',\n",
        " 'eighth',\n",
        " 'sixteenth',\n",
        " 'thiry-second',\n",
        " 'sixty-fourth']"
       ]
      }
     ],
     "prompt_number": 2
    },
    {
     "cell_type": "code",
     "collapsed": false,
     "input": [
      "midi.BEATVALUES"
     ],
     "language": "python",
     "metadata": {},
     "outputs": [
      {
       "metadata": {},
       "output_type": "pyout",
       "prompt_number": 3,
       "text": [
        "[4, 2, 1, 0.5, 0.25, 0.125, 0.0625]"
       ]
      }
     ],
     "prompt_number": 3
    },
    {
     "cell_type": "code",
     "collapsed": false,
     "input": [
      "mary_mid = midi.Pattern(format=1, resolution=220, tracks=\\\n",
      "  [\n",
      "    midi.Track([\n",
      "      midi.TimeSignatureEvent(tick=0, data=[4, 2, 24, 8]),\n",
      "      midi.KeySignatureEvent(tick=0, data=[0, 0]),\n",
      "      midi.EndOfTrackEvent(tick=1, data=[])\n",
      "    ]),\n",
      "    midi.Track([\n",
      "      midi.ControlChangeEvent(tick=0, channel=0, data=[91, 58]),\n",
      "      midi.ControlChangeEvent(tick=0, channel=0, data=[10, 69]),\n",
      "      midi.ControlChangeEvent(tick=0, channel=0, data=[0, 0]),\n",
      "      midi.ControlChangeEvent(tick=0, channel=0, data=[32, 0]),\n",
      "      midi.ProgramChangeEvent(tick=0, channel=0, data=[24]),\n",
      "      midi.NoteOnEvent(tick=0, channel=0, data=[64, 72]),\n",
      "      midi.NoteOnEvent(tick=0, channel=0, data=[55, 70]),\n",
      "      midi.NoteOnEvent(tick=220, channel=0, data=[64, 0]),\n",
      "      midi.NoteOnEvent(tick=110, channel=0, data=[55, 0]),\n",
      "      midi.EndOfTrackEvent(tick=1, data=[])\n",
      "   ])\n",
      "])"
     ],
     "language": "python",
     "metadata": {},
     "outputs": [],
     "prompt_number": 11
    },
    {
     "cell_type": "code",
     "collapsed": false,
     "input": [
      "midi.write_midifile(\"example.mid\", mary_mid)"
     ],
     "language": "python",
     "metadata": {},
     "outputs": [],
     "prompt_number": 12
    },
    {
     "cell_type": "code",
     "collapsed": false,
     "input": [
      "mary_mid"
     ],
     "language": "python",
     "metadata": {},
     "outputs": [
      {
       "metadata": {},
       "output_type": "pyout",
       "prompt_number": 6,
       "text": [
        "midi.Pattern(format=1, resolution=220, tracks=\\\n",
        "[midi.Track(\\\n",
        "  [midi.TimeSignatureEvent(tick=0, data=[4, 2, 24, 8]),\n",
        "   midi.KeySignatureEvent(tick=0, data=[0, 0]),\n",
        "   midi.EndOfTrackEvent(tick=1, data=[])]),\n",
        " midi.Track(\\\n",
        "  [midi.ControlChangeEvent(tick=0, channel=0, data=[91, 58]),\n",
        "   midi.ControlChangeEvent(tick=0, channel=0, data=[10, 69]),\n",
        "   midi.ControlChangeEvent(tick=0, channel=0, data=[0, 0]),\n",
        "   midi.ControlChangeEvent(tick=0, channel=0, data=[32, 0]),\n",
        "   midi.ProgramChangeEvent(tick=0, channel=0, data=[24]),\n",
        "   midi.NoteOnEvent(tick=0, channel=0, data=[64, 72]),\n",
        "   midi.NoteOnEvent(tick=0, channel=0, data=[55, 70]),\n",
        "   midi.NoteOnEvent(tick=231, channel=0, data=[64, 0]),\n",
        "   midi.NoteOnEvent(tick=25, channel=0, data=[62, 72])])])"
       ]
      }
     ],
     "prompt_number": 6
    },
    {
     "cell_type": "code",
     "collapsed": false,
     "input": [
      "data = midi.read_midifile('./fella1.mid')"
     ],
     "language": "python",
     "metadata": {},
     "outputs": [],
     "prompt_number": 5
    },
    {
     "cell_type": "code",
     "collapsed": false,
     "input": [
      "data"
     ],
     "language": "python",
     "metadata": {},
     "outputs": [
      {
       "metadata": {},
       "output_type": "pyout",
       "prompt_number": 6,
       "text": [
        "midi.Pattern(format=1, resolution=192, tracks=\\\n",
        "[midi.Track(\\\n",
        "  [midi.TrackNameEvent(tick=0, text='fella1', data=[102, 101, 108, 108, 97, 49]),\n",
        "   midi.TextMetaEvent(tick=0, text='Created by MMA. Input filename: fella1.mma', data=[67, 114, 101, 97, 116, 101, 100, 32, 98, 121, 32, 77, 77, 65, 46, 32, 73, 110, 112, 117, 116, 32, 102, 105, 108, 101, 110, 97, 109, 101, 58, 32, 102, 101, 108, 108, 97, 49, 46, 109, 109, 97]),\n",
        "   midi.TimeSignatureEvent(tick=0, data=[4, 2, 48, 8]),\n",
        "   midi.SetTempoEvent(tick=0, data=[7, 161, 32]),\n",
        "   midi.EndOfTrackEvent(tick=0, data=[])]),\n",
        " midi.Track(\\\n",
        "  [midi.TrackNameEvent(tick=0, text='Drum', data=[68, 114, 117, 109]),\n",
        "   midi.ProgramChangeEvent(tick=0, channel=9, data=[0]),\n",
        "   midi.NoteOnEvent(tick=0, channel=9, data=[42, 75]),\n",
        "   midi.NoteOnEvent(tick=0, channel=9, data=[70, 89]),\n",
        "   midi.NoteOnEvent(tick=1, channel=9, data=[42, 0]),\n",
        "   midi.NoteOnEvent(tick=0, channel=9, data=[70, 0]),\n",
        "   midi.NoteOnEvent(tick=93, channel=9, data=[70, 87]),\n",
        "   midi.NoteOnEvent(tick=1, channel=9, data=[70, 0]),\n",
        "   midi.NoteOnEvent(tick=1, channel=9, data=[42, 72]),\n",
        "   midi.NoteOnEvent(tick=1, channel=9, data=[42, 0]),\n",
        "   midi.NoteOnEvent(tick=1, channel=9, data=[75, 127]),\n",
        "   midi.NoteOnEvent(tick=1, channel=9, data=[75, 0]),\n",
        "   midi.NoteOnEvent(tick=93, channel=9, data=[70, 90]),\n",
        "   midi.NoteOnEvent(tick=1, channel=9, data=[62, 88]),\n",
        "   midi.NoteOnEvent(tick=0, channel=9, data=[42, 73]),\n",
        "   midi.NoteOnEvent(tick=0, channel=9, data=[70, 0]),\n",
        "   midi.NoteOnEvent(tick=1, channel=9, data=[62, 0]),\n",
        "   midi.NoteOnEvent(tick=0, channel=9, data=[42, 0]),\n",
        "   midi.NoteOnEvent(tick=92, channel=9, data=[70, 93]),\n",
        "   midi.NoteOnEvent(tick=1, channel=9, data=[70, 0]),\n",
        "   midi.NoteOnEvent(tick=1, channel=9, data=[42, 74]),\n",
        "   midi.NoteOnEvent(tick=1, channel=9, data=[42, 0]),\n",
        "   midi.NoteOnEvent(tick=93, channel=9, data=[42, 74]),\n",
        "   midi.NoteOnEvent(tick=0, channel=9, data=[61, 88]),\n",
        "   midi.NoteOnEvent(tick=0, channel=9, data=[70, 86]),\n",
        "   midi.NoteOnEvent(tick=1, channel=9, data=[42, 0]),\n",
        "   midi.NoteOnEvent(tick=0, channel=9, data=[61, 0]),\n",
        "   midi.NoteOnEvent(tick=0, channel=9, data=[70, 0]),\n",
        "   midi.NoteOnEvent(tick=95, channel=9, data=[46, 93]),\n",
        "   midi.NoteOnEvent(tick=1, channel=9, data=[46, 0]),\n",
        "   midi.NoteOnEvent(tick=0, channel=9, data=[70, 93]),\n",
        "   midi.NoteOnEvent(tick=1, channel=9, data=[75, 127]),\n",
        "   midi.NoteOnEvent(tick=0, channel=9, data=[70, 0]),\n",
        "   midi.NoteOnEvent(tick=1, channel=9, data=[75, 0]),\n",
        "   midi.NoteOnEvent(tick=1, channel=9, data=[42, 72]),\n",
        "   midi.NoteOnEvent(tick=1, channel=9, data=[42, 0]),\n",
        "   midi.NoteOnEvent(tick=91, channel=9, data=[64, 127]),\n",
        "   midi.NoteOnEvent(tick=1, channel=9, data=[64, 0]),\n",
        "   midi.NoteOnEvent(tick=2, channel=9, data=[42, 73]),\n",
        "   midi.NoteOnEvent(tick=1, channel=9, data=[42, 0]),\n",
        "   midi.NoteOnEvent(tick=0, channel=9, data=[70, 91]),\n",
        "   midi.NoteOnEvent(tick=1, channel=9, data=[70, 0]),\n",
        "   midi.NoteOnEvent(tick=92, channel=9, data=[70, 89]),\n",
        "   midi.NoteOnEvent(tick=1, channel=9, data=[42, 72]),\n",
        "   midi.NoteOnEvent(tick=0, channel=9, data=[70, 0]),\n",
        "   midi.NoteOnEvent(tick=1, channel=9, data=[42, 0]),\n",
        "   midi.NoteOnEvent(tick=96, channel=9, data=[42, 75]),\n",
        "   midi.NoteOnEvent(tick=1, channel=9, data=[42, 0]),\n",
        "   midi.NoteOnEvent(tick=0, channel=9, data=[70, 90]),\n",
        "   midi.NoteOnEvent(tick=1, channel=9, data=[70, 0]),\n",
        "   midi.NoteOnEvent(tick=92, channel=9, data=[75, 127]),\n",
        "   midi.NoteOnEvent(tick=0, channel=9, data=[70, 88]),\n",
        "   midi.NoteOnEvent(tick=1, channel=9, data=[62, 87]),\n",
        "   midi.NoteOnEvent(tick=0, channel=9, data=[75, 0]),\n",
        "   midi.NoteOnEvent(tick=0, channel=9, data=[70, 0]),\n",
        "   midi.NoteOnEvent(tick=1, channel=9, data=[62, 0]),\n",
        "   midi.NoteOnEvent(tick=1, channel=9, data=[42, 74]),\n",
        "   midi.NoteOnEvent(tick=1, channel=9, data=[42, 0]),\n",
        "   midi.NoteOnEvent(tick=92, channel=9, data=[42, 71]),\n",
        "   midi.NoteOnEvent(tick=1, channel=9, data=[42, 0]),\n",
        "   midi.NoteOnEvent(tick=1, channel=9, data=[70, 93]),\n",
        "   midi.NoteOnEvent(tick=1, channel=9, data=[70, 0]),\n",
        "   midi.NoteOnEvent(tick=92, channel=9, data=[42, 70]),\n",
        "   midi.NoteOnEvent(tick=1, channel=9, data=[42, 0]),\n",
        "   midi.NoteOnEvent(tick=1, channel=9, data=[60, 86]),\n",
        "   midi.NoteOnEvent(tick=1, channel=9, data=[60, 0]),\n",
        "   midi.NoteOnEvent(tick=1, channel=9, data=[70, 86]),\n",
        "   midi.NoteOnEvent(tick=1, channel=9, data=[70, 0]),\n",
        "   midi.NoteOnEvent(tick=92, channel=9, data=[42, 73]),\n",
        "   midi.NoteOnEvent(tick=0, channel=9, data=[70, 90]),\n",
        "   midi.NoteOnEvent(tick=1, channel=9, data=[42, 0]),\n",
        "   midi.NoteOnEvent(tick=0, channel=9, data=[70, 0]),\n",
        "   midi.NoteOnEvent(tick=94, channel=9, data=[42, 71]),\n",
        "   midi.NoteOnEvent(tick=0, channel=9, data=[75, 117]),\n",
        "   midi.NoteOnEvent(tick=1, channel=9, data=[42, 0]),\n",
        "   midi.NoteOnEvent(tick=0, channel=9, data=[75, 0]),\n",
        "   midi.NoteOnEvent(tick=0, channel=9, data=[64, 122]),\n",
        "   midi.NoteOnEvent(tick=0, channel=9, data=[70, 93]),\n",
        "   midi.NoteOnEvent(tick=1, channel=9, data=[64, 0]),\n",
        "   midi.NoteOnEvent(tick=0, channel=9, data=[70, 0]),\n",
        "   midi.NoteOnEvent(tick=2, channel=9, data=[46, 90]),\n",
        "   midi.NoteOnEvent(tick=1, channel=9, data=[46, 0]),\n",
        "   midi.NoteOnEvent(tick=91, channel=9, data=[42, 74]),\n",
        "   midi.NoteOnEvent(tick=1, channel=9, data=[42, 0]),\n",
        "   midi.NoteOnEvent(tick=1, channel=9, data=[64, 125]),\n",
        "   midi.NoteOnEvent(tick=0, channel=9, data=[70, 86]),\n",
        "   midi.NoteOnEvent(tick=1, channel=9, data=[64, 0]),\n",
        "   midi.NoteOnEvent(tick=0, channel=9, data=[70, 0]),\n",
        "   midi.NoteOnEvent(tick=93, channel=9, data=[42, 75]),\n",
        "   midi.NoteOnEvent(tick=1, channel=9, data=[42, 0]),\n",
        "   midi.NoteOnEvent(tick=0, channel=9, data=[60, 92]),\n",
        "   midi.NoteOnEvent(tick=1, channel=9, data=[60, 0]),\n",
        "   midi.NoteOnEvent(tick=1, channel=9, data=[70, 86]),\n",
        "   midi.NoteOnEvent(tick=1, channel=9, data=[70, 0]),\n",
        "   midi.NoteOnEvent(tick=94, channel=9, data=[42, 70]),\n",
        "   midi.NoteOnEvent(tick=0, channel=9, data=[75, 123]),\n",
        "   midi.NoteOnEvent(tick=0, channel=9, data=[70, 92]),\n",
        "   midi.NoteOnEvent(tick=1, channel=9, data=[42, 0]),\n",
        "   midi.NoteOnEvent(tick=0, channel=9, data=[75, 0]),\n",
        "   midi.NoteOnEvent(tick=0, channel=9, data=[70, 0]),\n",
        "   midi.NoteOnEvent(tick=94, channel=9, data=[42, 70]),\n",
        "   midi.NoteOnEvent(tick=1, channel=9, data=[42, 0]),\n",
        "   midi.NoteOnEvent(tick=1, channel=9, data=[70, 93]),\n",
        "   midi.NoteOnEvent(tick=1, channel=9, data=[70, 0]),\n",
        "   midi.NoteOnEvent(tick=93, channel=9, data=[42, 72]),\n",
        "   midi.NoteOnEvent(tick=1, channel=9, data=[62, 86]),\n",
        "   midi.NoteOnEvent(tick=0, channel=9, data=[42, 0]),\n",
        "   midi.NoteOnEvent(tick=1, channel=9, data=[62, 0]),\n",
        "   midi.NoteOnEvent(tick=0, channel=9, data=[70, 92]),\n",
        "   midi.NoteOnEvent(tick=1, channel=9, data=[70, 0]),\n",
        "   midi.NoteOnEvent(tick=93, channel=9, data=[42, 75]),\n",
        "   midi.NoteOnEvent(tick=1, channel=9, data=[42, 0]),\n",
        "   midi.NoteOnEvent(tick=1, channel=9, data=[75, 120]),\n",
        "   midi.NoteOnEvent(tick=0, channel=9, data=[70, 87]),\n",
        "   midi.NoteOnEvent(tick=1, channel=9, data=[75, 0]),\n",
        "   midi.NoteOnEvent(tick=0, channel=9, data=[70, 0]),\n",
        "   midi.NoteOnEvent(tick=92, channel=9, data=[63, 93]),\n",
        "   midi.NoteOnEvent(tick=0, channel=9, data=[70, 92]),\n",
        "   midi.NoteOnEvent(tick=1, channel=9, data=[63, 0]),\n",
        "   midi.NoteOnEvent(tick=0, channel=9, data=[42, 70]),\n",
        "   midi.NoteOnEvent(tick=0, channel=9, data=[61, 92]),\n",
        "   midi.NoteOnEvent(tick=0, channel=9, data=[70, 0]),\n",
        "   midi.NoteOnEvent(tick=1, channel=9, data=[42, 0]),\n",
        "   midi.NoteOnEvent(tick=0, channel=9, data=[61, 0]),\n",
        "   midi.NoteOnEvent(tick=96, channel=9, data=[70, 92]),\n",
        "   midi.NoteOnEvent(tick=1, channel=9, data=[70, 0]),\n",
        "   midi.NoteOnEvent(tick=1, channel=9, data=[42, 72]),\n",
        "   midi.NoteOnEvent(tick=1, channel=9, data=[42, 0]),\n",
        "   midi.NoteOnEvent(tick=92, channel=9, data=[75, 119]),\n",
        "   midi.NoteOnEvent(tick=1, channel=9, data=[75, 0]),\n",
        "   midi.NoteOnEvent(tick=0, channel=9, data=[70, 89]),\n",
        "   midi.NoteOnEvent(tick=1, channel=9, data=[42, 70]),\n",
        "   midi.NoteOnEvent(tick=0, channel=9, data=[64, 123]),\n",
        "   midi.NoteOnEvent(tick=0, channel=9, data=[70, 0]),\n",
        "   midi.NoteOnEvent(tick=1, channel=9, data=[42, 0]),\n",
        "   midi.NoteOnEvent(tick=0, channel=9, data=[64, 0]),\n",
        "   midi.NoteOnEvent(tick=93, channel=9, data=[70, 87]),\n",
        "   midi.NoteOnEvent(tick=1, channel=9, data=[70, 0]),\n",
        "   midi.NoteOnEvent(tick=1, channel=9, data=[42, 71]),\n",
        "   midi.NoteOnEvent(tick=1, channel=9, data=[42, 0]),\n",
        "   midi.NoteOnEvent(tick=94, channel=9, data=[42, 70]),\n",
        "   midi.NoteOnEvent(tick=0, channel=9, data=[70, 86]),\n",
        "   midi.NoteOnEvent(tick=1, channel=9, data=[42, 0]),\n",
        "   midi.NoteOnEvent(tick=0, channel=9, data=[70, 0]),\n",
        "   midi.NoteOnEvent(tick=96, channel=9, data=[62, 88]),\n",
        "   midi.NoteOnEvent(tick=0, channel=9, data=[75, 110]),\n",
        "   midi.NoteOnEvent(tick=0, channel=9, data=[70, 91]),\n",
        "   midi.NoteOnEvent(tick=1, channel=9, data=[62, 0]),\n",
        "   midi.NoteOnEvent(tick=0, channel=9, data=[42, 75]),\n",
        "   midi.NoteOnEvent(tick=0, channel=9, data=[75, 0]),\n",
        "   midi.NoteOnEvent(tick=0, channel=9, data=[70, 0]),\n",
        "   midi.NoteOnEvent(tick=1, channel=9, data=[42, 0]),\n",
        "   midi.NoteOnEvent(tick=91, channel=9, data=[42, 75]),\n",
        "   midi.NoteOnEvent(tick=1, channel=9, data=[42, 0]),\n",
        "   midi.NoteOnEvent(tick=1, channel=9, data=[70, 93]),\n",
        "   midi.NoteOnEvent(tick=1, channel=9, data=[70, 0]),\n",
        "   midi.NoteOnEvent(tick=95, channel=9, data=[60, 87]),\n",
        "   midi.NoteOnEvent(tick=1, channel=9, data=[42, 72]),\n",
        "   midi.NoteOnEvent(tick=0, channel=9, data=[60, 0]),\n",
        "   midi.NoteOnEvent(tick=1, channel=9, data=[42, 0]),\n",
        "   midi.NoteOnEvent(tick=0, channel=9, data=[70, 86]),\n",
        "   midi.NoteOnEvent(tick=1, channel=9, data=[70, 0]),\n",
        "   midi.NoteOnEvent(tick=95, channel=9, data=[42, 70]),\n",
        "   midi.NoteOnEvent(tick=0, channel=9, data=[70, 86]),\n",
        "   midi.NoteOnEvent(tick=1, channel=9, data=[42, 0]),\n",
        "   midi.NoteOnEvent(tick=0, channel=9, data=[70, 0]),\n",
        "   midi.NoteOnEvent(tick=91, channel=9, data=[75, 127]),\n",
        "   midi.NoteOnEvent(tick=1, channel=9, data=[75, 0]),\n",
        "   midi.NoteOnEvent(tick=1, channel=9, data=[64, 126]),\n",
        "   midi.NoteOnEvent(tick=1, channel=9, data=[46, 88]),\n",
        "   midi.NoteOnEvent(tick=0, channel=9, data=[64, 0]),\n",
        "   midi.NoteOnEvent(tick=0, channel=9, data=[70, 87]),\n",
        "   midi.NoteOnEvent(tick=1, channel=9, data=[46, 0]),\n",
        "   midi.NoteOnEvent(tick=0, channel=9, data=[42, 74]),\n",
        "   midi.NoteOnEvent(tick=0, channel=9, data=[70, 0]),\n",
        "   midi.NoteOnEvent(tick=1, channel=9, data=[42, 0]),\n",
        "   midi.NoteOnEvent(tick=91, channel=9, data=[70, 86]),\n",
        "   midi.NoteOnEvent(tick=1, channel=9, data=[70, 0]),\n",
        "   midi.NoteOnEvent(tick=1, channel=9, data=[42, 75]),\n",
        "   midi.NoteOnEvent(tick=1, channel=9, data=[42, 0]),\n",
        "   midi.NoteOnEvent(tick=0, channel=9, data=[64, 125]),\n",
        "   midi.NoteOnEvent(tick=1, channel=9, data=[64, 0]),\n",
        "   midi.NoteOnEvent(tick=95, channel=9, data=[42, 72]),\n",
        "   midi.NoteOnEvent(tick=0, channel=9, data=[60, 90]),\n",
        "   midi.NoteOnEvent(tick=0, channel=9, data=[70, 90]),\n",
        "   midi.NoteOnEvent(tick=1, channel=9, data=[42, 0]),\n",
        "   midi.NoteOnEvent(tick=0, channel=9, data=[60, 0]),\n",
        "   midi.NoteOnEvent(tick=0, channel=9, data=[70, 0]),\n",
        "   midi.NoteOnEvent(tick=94, channel=9, data=[42, 72]),\n",
        "   midi.NoteOnEvent(tick=0, channel=9, data=[70, 89]),\n",
        "   midi.NoteOnEvent(tick=1, channel=9, data=[42, 0]),\n",
        "   midi.NoteOnEvent(tick=0, channel=9, data=[70, 0]),\n",
        "   midi.NoteOnEvent(tick=94, channel=9, data=[75, 117]),\n",
        "   midi.NoteOnEvent(tick=1, channel=9, data=[75, 0]),\n",
        "   midi.NoteOnEvent(tick=1, channel=9, data=[42, 72]),\n",
        "   midi.NoteOnEvent(tick=1, channel=9, data=[42, 0]),\n",
        "   midi.NoteOnEvent(tick=0, channel=9, data=[70, 89]),\n",
        "   midi.NoteOnEvent(tick=1, channel=9, data=[70, 0]),\n",
        "   midi.NoteOnEvent(tick=91, channel=9, data=[62, 87]),\n",
        "   midi.NoteOnEvent(tick=0, channel=9, data=[42, 74]),\n",
        "   midi.NoteOnEvent(tick=1, channel=9, data=[62, 0]),\n",
        "   midi.NoteOnEvent(tick=0, channel=9, data=[42, 0]),\n",
        "   midi.NoteOnEvent(tick=0, channel=9, data=[70, 90]),\n",
        "   midi.NoteOnEvent(tick=1, channel=9, data=[70, 0]),\n",
        "   midi.NoteOnEvent(tick=94, channel=9, data=[70, 91]),\n",
        "   midi.NoteOnEvent(tick=1, channel=9, data=[42, 73]),\n",
        "   midi.NoteOnEvent(tick=0, channel=9, data=[70, 0]),\n",
        "   midi.NoteOnEvent(tick=1, channel=9, data=[42, 0]),\n",
        "   midi.NoteOnEvent(tick=94, channel=9, data=[63, 86]),\n",
        "   midi.NoteOnEvent(tick=0, channel=9, data=[61, 92]),\n",
        "   midi.NoteOnEvent(tick=0, channel=9, data=[70, 93]),\n",
        "   midi.NoteOnEvent(tick=1, channel=9, data=[63, 0]),\n",
        "   midi.NoteOnEvent(tick=0, channel=9, data=[61, 0]),\n",
        "   midi.NoteOnEvent(tick=0, channel=9, data=[70, 0]),\n",
        "   midi.NoteOnEvent(tick=2, channel=9, data=[42, 73]),\n",
        "   midi.NoteOnEvent(tick=1, channel=9, data=[42, 0]),\n",
        "   midi.NoteOnEvent(tick=92, channel=9, data=[42, 73]),\n",
        "   midi.NoteOnEvent(tick=1, channel=9, data=[42, 0]),\n",
        "   midi.NoteOnEvent(tick=0, channel=9, data=[75, 127]),\n",
        "   midi.NoteOnEvent(tick=1, channel=9, data=[75, 0]),\n",
        "   midi.NoteOnEvent(tick=0, channel=9, data=[70, 91]),\n",
        "   midi.NoteOnEvent(tick=1, channel=9, data=[70, 0]),\n",
        "   midi.NoteOnEvent(tick=1, channel=9, data=[75, 116]),\n",
        "   midi.NoteOnEvent(tick=1, channel=9, data=[75, 0]),\n",
        "   midi.NoteOnEvent(tick=91, channel=9, data=[42, 71]),\n",
        "   midi.NoteOnEvent(tick=0, channel=9, data=[64, 123]),\n",
        "   midi.NoteOnEvent(tick=1, channel=9, data=[42, 0]),\n",
        "   midi.NoteOnEvent(tick=0, channel=9, data=[64, 0]),\n",
        "   midi.NoteOnEvent(tick=3, channel=9, data=[70, 91]),\n",
        "   midi.NoteOnEvent(tick=1, channel=9, data=[70, 0]),\n",
        "   midi.NoteOnEvent(tick=93, channel=9, data=[42, 74]),\n",
        "   midi.NoteOnEvent(tick=0, channel=9, data=[70, 87]),\n",
        "   midi.NoteOnEvent(tick=1, channel=9, data=[42, 0]),\n",
        "   midi.NoteOnEvent(tick=0, channel=9, data=[70, 0]),\n",
        "   midi.NoteOnEvent(tick=95, channel=9, data=[42, 74]),\n",
        "   midi.NoteOnEvent(tick=0, channel=9, data=[70, 88]),\n",
        "   midi.NoteOnEvent(tick=1, channel=9, data=[42, 0]),\n",
        "   midi.NoteOnEvent(tick=0, channel=9, data=[70, 0]),\n",
        "   midi.NoteOnEvent(tick=93, channel=9, data=[62, 88]),\n",
        "   midi.NoteOnEvent(tick=1, channel=9, data=[62, 0]),\n",
        "   midi.NoteOnEvent(tick=0, channel=9, data=[42, 75]),\n",
        "   midi.NoteOnEvent(tick=1, channel=9, data=[42, 0]),\n",
        "   midi.NoteOnEvent(tick=0, channel=9, data=[75, 127]),\n",
        "   midi.NoteOnEvent(tick=1, channel=9, data=[75, 0]),\n",
        "   midi.NoteOnEvent(tick=1, channel=9, data=[70, 89]),\n",
        "   midi.NoteOnEvent(tick=1, channel=9, data=[70, 0]),\n",
        "   midi.NoteOnEvent(tick=93, channel=9, data=[70, 88]),\n",
        "   midi.NoteOnEvent(tick=1, channel=9, data=[70, 0]),\n",
        "   midi.NoteOnEvent(tick=1, channel=9, data=[42, 71]),\n",
        "   midi.NoteOnEvent(tick=1, channel=9, data=[42, 0]),\n",
        "   midi.NoteOnEvent(tick=95, channel=9, data=[42, 72]),\n",
        "   midi.NoteOnEvent(tick=0, channel=9, data=[60, 88]),\n",
        "   midi.NoteOnEvent(tick=0, channel=9, data=[70, 92]),\n",
        "   midi.NoteOnEvent(tick=1, channel=9, data=[42, 0]),\n",
        "   midi.NoteOnEvent(tick=0, channel=9, data=[60, 0]),\n",
        "   midi.NoteOnEvent(tick=0, channel=9, data=[70, 0]),\n",
        "   midi.NoteOnEvent(tick=93, channel=9, data=[42, 70]),\n",
        "   midi.NoteOnEvent(tick=1, channel=9, data=[42, 0]),\n",
        "   midi.NoteOnEvent(tick=0, channel=9, data=[70, 93]),\n",
        "   midi.NoteOnEvent(tick=1, channel=9, data=[70, 0]),\n",
        "   midi.NoteOnEvent(tick=92, channel=9, data=[46, 87]),\n",
        "   midi.NoteOnEvent(tick=1, channel=9, data=[46, 0]),\n",
        "   midi.NoteOnEvent(tick=0, channel=9, data=[75, 120]),\n",
        "   midi.NoteOnEvent(tick=1, channel=9, data=[42, 74]),\n",
        "   midi.NoteOnEvent(tick=0, channel=9, data=[75, 0]),\n",
        "   midi.NoteOnEvent(tick=0, channel=9, data=[70, 87]),\n",
        "   midi.NoteOnEvent(tick=1, channel=9, data=[42, 0]),\n",
        "   midi.NoteOnEvent(tick=0, channel=9, data=[64, 118]),\n",
        "   midi.NoteOnEvent(tick=0, channel=9, data=[70, 0]),\n",
        "   midi.NoteOnEvent(tick=1, channel=9, data=[64, 0]),\n",
        "   midi.NoteOnEvent(tick=92, channel=9, data=[42, 70]),\n",
        "   midi.NoteOnEvent(tick=1, channel=9, data=[42, 0]),\n",
        "   midi.NoteOnEvent(tick=1, channel=9, data=[64, 118]),\n",
        "   midi.NoteOnEvent(tick=0, channel=9, data=[70, 86]),\n",
        "   midi.NoteOnEvent(tick=1, channel=9, data=[64, 0]),\n",
        "   midi.NoteOnEvent(tick=0, channel=9, data=[70, 0]),\n",
        "   midi.NoteOnEvent(tick=94, channel=9, data=[42, 73]),\n",
        "   midi.NoteOnEvent(tick=1, channel=9, data=[42, 0]),\n",
        "   midi.NoteOnEvent(tick=0, channel=9, data=[70, 89]),\n",
        "   midi.NoteOnEvent(tick=1, channel=9, data=[60, 92]),\n",
        "   midi.NoteOnEvent(tick=0, channel=9, data=[70, 0]),\n",
        "   midi.NoteOnEvent(tick=1, channel=9, data=[60, 0]),\n",
        "   midi.NoteOnEvent(tick=94, channel=9, data=[70, 92]),\n",
        "   midi.NoteOnEvent(tick=1, channel=9, data=[42, 75]),\n",
        "   midi.NoteOnEvent(tick=0, channel=9, data=[70, 0]),\n",
        "   midi.NoteOnEvent(tick=1, channel=9, data=[42, 0]),\n",
        "   midi.NoteOnEvent(tick=92, channel=9, data=[75, 110]),\n",
        "   midi.NoteOnEvent(tick=1, channel=9, data=[75, 0]),\n",
        "   midi.NoteOnEvent(tick=0, channel=9, data=[70, 92]),\n",
        "   midi.NoteOnEvent(tick=1, channel=9, data=[70, 0]),\n",
        "   midi.NoteOnEvent(tick=2, channel=9, data=[42, 71]),\n",
        "   midi.NoteOnEvent(tick=1, channel=9, data=[42, 0]),\n",
        "   midi.NoteOnEvent(tick=91, channel=9, data=[70, 93]),\n",
        "   midi.NoteOnEvent(tick=1, channel=9, data=[70, 0]),\n",
        "   midi.NoteOnEvent(tick=3, channel=9, data=[62, 90]),\n",
        "   midi.NoteOnEvent(tick=0, channel=9, data=[42, 74]),\n",
        "   midi.NoteOnEvent(tick=1, channel=9, data=[62, 0]),\n",
        "   midi.NoteOnEvent(tick=0, channel=9, data=[42, 0]),\n",
        "   midi.NoteOnEvent(tick=91, channel=9, data=[42, 75]),\n",
        "   midi.NoteOnEvent(tick=1, channel=9, data=[42, 0]),\n",
        "   midi.NoteOnEvent(tick=1, channel=9, data=[70, 91]),\n",
        "   midi.NoteOnEvent(tick=1, channel=9, data=[70, 0]),\n",
        "   midi.NoteOnEvent(tick=94, channel=9, data=[42, 75]),\n",
        "   midi.NoteOnEvent(tick=1, channel=9, data=[42, 0]),\n",
        "   midi.NoteOnEvent(tick=0, channel=9, data=[70, 92]),\n",
        "   midi.NoteOnEvent(tick=1, channel=9, data=[70, 0]),\n",
        "   midi.NoteOnEvent(tick=1, channel=9, data=[61, 92]),\n",
        "   midi.NoteOnEvent(tick=1, channel=9, data=[61, 0]),\n",
        "   midi.NoteOnEvent(tick=91, channel=9, data=[75, 120]),\n",
        "   midi.NoteOnEvent(tick=1, channel=9, data=[75, 0]),\n",
        "   midi.NoteOnEvent(tick=2, channel=9, data=[42, 71]),\n",
        "   midi.NoteOnEvent(tick=1, channel=9, data=[42, 0]),\n",
        "   midi.NoteOnEvent(tick=0, channel=9, data=[75, 117]),\n",
        "   midi.NoteOnEvent(tick=0, channel=9, data=[70, 92]),\n",
        "   midi.NoteOnEvent(tick=1, channel=9, data=[75, 0]),\n",
        "   midi.NoteOnEvent(tick=0, channel=9, data=[70, 0]),\n",
        "   midi.NoteOnEvent(tick=91, channel=9, data=[64, 119]),\n",
        "   midi.NoteOnEvent(tick=1, channel=9, data=[64, 0]),\n",
        "   midi.NoteOnEvent(tick=0, channel=9, data=[70, 93]),\n",
        "   midi.NoteOnEvent(tick=1, channel=9, data=[70, 0]),\n",
        "   midi.NoteOnEvent(tick=2, channel=9, data=[42, 73]),\n",
        "   midi.NoteOnEvent(tick=1, channel=9, data=[42, 0]),\n",
        "   midi.NoteOnEvent(tick=91, channel=9, data=[42, 74]),\n",
        "   midi.NoteOnEvent(tick=1, channel=9, data=[42, 0]),\n",
        "   midi.NoteOnEvent(tick=2, channel=9, data=[70, 86]),\n",
        "   midi.NoteOnEvent(tick=1, channel=9, data=[70, 0]),\n",
        "   midi.NoteOnEvent(tick=94, channel=9, data=[42, 72]),\n",
        "   midi.NoteOnEvent(tick=0, channel=9, data=[70, 93]),\n",
        "   midi.NoteOnEvent(tick=1, channel=9, data=[42, 0]),\n",
        "   midi.NoteOnEvent(tick=0, channel=9, data=[70, 0]),\n",
        "   midi.NoteOnEvent(tick=96, channel=9, data=[75, 127]),\n",
        "   midi.NoteOnEvent(tick=1, channel=9, data=[62, 86]),\n",
        "   midi.NoteOnEvent(tick=0, channel=9, data=[42, 71]),\n",
        "   midi.NoteOnEvent(tick=0, channel=9, data=[75, 0]),\n",
        "   midi.NoteOnEvent(tick=1, channel=9, data=[62, 0]),\n",
        "   midi.NoteOnEvent(tick=0, channel=9, data=[42, 0]),\n",
        "   midi.NoteOnEvent(tick=92, channel=9, data=[42, 74]),\n",
        "   midi.NoteOnEvent(tick=0, channel=9, data=[70, 91]),\n",
        "   midi.NoteOnEvent(tick=1, channel=9, data=[42, 0]),\n",
        "   midi.NoteOnEvent(tick=0, channel=9, data=[70, 0]),\n",
        "   midi.NoteOnEvent(tick=97, channel=9, data=[60, 87]),\n",
        "   midi.NoteOnEvent(tick=1, channel=9, data=[42, 74]),\n",
        "   midi.NoteOnEvent(tick=0, channel=9, data=[60, 0]),\n",
        "   midi.NoteOnEvent(tick=1, channel=9, data=[42, 0]),\n",
        "   midi.NoteOnEvent(tick=91, channel=9, data=[42, 71]),\n",
        "   midi.NoteOnEvent(tick=0, channel=9, data=[70, 92]),\n",
        "   midi.NoteOnEvent(tick=1, channel=9, data=[42, 0]),\n",
        "   midi.NoteOnEvent(tick=0, channel=9, data=[70, 0]),\n",
        "   midi.NoteOnEvent(tick=97, channel=9, data=[42, 71]),\n",
        "   midi.NoteOnEvent(tick=0, channel=9, data=[75, 111]),\n",
        "   midi.NoteOnEvent(tick=0, channel=9, data=[64, 124]),\n",
        "   midi.NoteOnEvent(tick=1, channel=9, data=[42, 0]),\n",
        "   midi.NoteOnEvent(tick=0, channel=9, data=[75, 0]),\n",
        "   midi.NoteOnEvent(tick=0, channel=9, data=[64, 0]),\n",
        "   midi.NoteOnEvent(tick=1, channel=9, data=[46, 90]),\n",
        "   midi.NoteOnEvent(tick=1, channel=9, data=[46, 0]),\n",
        "   midi.NoteOnEvent(tick=91, channel=9, data=[70, 91]),\n",
        "   midi.NoteOnEvent(tick=1, channel=9, data=[42, 71]),\n",
        "   midi.NoteOnEvent(tick=0, channel=9, data=[64, 119]),\n",
        "   midi.NoteOnEvent(tick=0, channel=9, data=[70, 0]),\n",
        "   midi.NoteOnEvent(tick=1, channel=9, data=[42, 0]),\n",
        "   midi.NoteOnEvent(tick=0, channel=9, data=[64, 0]),\n",
        "   midi.NoteOnEvent(tick=97, channel=9, data=[42, 70]),\n",
        "   midi.NoteOnEvent(tick=0, channel=9, data=[60, 86]),\n",
        "   midi.NoteOnEvent(tick=1, channel=9, data=[42, 0]),\n",
        "   midi.NoteOnEvent(tick=0, channel=9, data=[60, 0]),\n",
        "   midi.NoteOnEvent(tick=94, channel=9, data=[70, 90]),\n",
        "   midi.NoteOnEvent(tick=1, channel=9, data=[70, 0]),\n",
        "   midi.NoteOnEvent(tick=1, channel=9, data=[42, 73]),\n",
        "   midi.NoteOnEvent(tick=1, channel=9, data=[42, 0]),\n",
        "   midi.NoteOnEvent(tick=91, channel=9, data=[42, 70]),\n",
        "   midi.NoteOnEvent(tick=0, channel=9, data=[75, 112]),\n",
        "   midi.NoteOnEvent(tick=1, channel=9, data=[42, 0]),\n",
        "   midi.NoteOnEvent(tick=0, channel=9, data=[75, 0]),\n",
        "   midi.NoteOnEvent(tick=0, channel=9, data=[70, 90]),\n",
        "   midi.NoteOnEvent(tick=1, channel=9, data=[70, 0]),\n",
        "   midi.NoteOnEvent(tick=95, channel=9, data=[42, 73]),\n",
        "   midi.NoteOnEvent(tick=1, channel=9, data=[62, 91]),\n",
        "   midi.NoteOnEvent(tick=0, channel=9, data=[42, 0]),\n",
        "   midi.NoteOnEvent(tick=1, channel=9, data=[62, 0]),\n",
        "   midi.NoteOnEvent(tick=0, channel=9, data=[70, 89]),\n",
        "   midi.NoteOnEvent(tick=1, channel=9, data=[70, 0]),\n",
        "   midi.NoteOnEvent(tick=92, channel=9, data=[70, 93]),\n",
        "   midi.NoteOnEvent(tick=1, channel=9, data=[70, 0]),\n",
        "   midi.NoteOnEvent(tick=2, channel=9, data=[42, 75]),\n",
        "   midi.NoteOnEvent(tick=1, channel=9, data=[42, 0]),\n",
        "   midi.NoteOnEvent(tick=93, channel=9, data=[63, 92]),\n",
        "   midi.NoteOnEvent(tick=0, channel=9, data=[42, 71]),\n",
        "   midi.NoteOnEvent(tick=0, channel=9, data=[61, 88]),\n",
        "   midi.NoteOnEvent(tick=1, channel=9, data=[63, 0]),\n",
        "   midi.NoteOnEvent(tick=0, channel=9, data=[42, 0]),\n",
        "   midi.NoteOnEvent(tick=0, channel=9, data=[61, 0]),\n",
        "   midi.NoteOnEvent(tick=1, channel=9, data=[70, 90]),\n",
        "   midi.NoteOnEvent(tick=1, channel=9, data=[70, 0]),\n",
        "   midi.NoteOnEvent(tick=92, channel=9, data=[70, 93]),\n",
        "   midi.NoteOnEvent(tick=1, channel=9, data=[70, 0]),\n",
        "   midi.NoteOnEvent(tick=2, channel=9, data=[75, 127]),\n",
        "   midi.NoteOnEvent(tick=1, channel=9, data=[42, 73]),\n",
        "   midi.NoteOnEvent(tick=0, channel=9, data=[75, 0]),\n",
        "   midi.NoteOnEvent(tick=1, channel=9, data=[42, 0]),\n",
        "   midi.NoteOnEvent(tick=91, channel=9, data=[70, 86]),\n",
        "   midi.NoteOnEvent(tick=1, channel=9, data=[70, 0]),\n",
        "   midi.NoteOnEvent(tick=1, channel=9, data=[42, 71]),\n",
        "   midi.NoteOnEvent(tick=1, channel=9, data=[42, 0]),\n",
        "   midi.NoteOnEvent(tick=0, channel=9, data=[64, 116]),\n",
        "   midi.NoteOnEvent(tick=1, channel=9, data=[64, 0]),\n",
        "   midi.NoteOnEvent(tick=92, channel=9, data=[42, 70]),\n",
        "   midi.NoteOnEvent(tick=1, channel=9, data=[42, 0]),\n",
        "   midi.NoteOnEvent(tick=3, channel=9, data=[70, 93]),\n",
        "   midi.NoteOnEvent(tick=1, channel=9, data=[70, 0]),\n",
        "   midi.NoteOnEvent(tick=93, channel=9, data=[42, 72]),\n",
        "   midi.NoteOnEvent(tick=1, channel=9, data=[42, 0]),\n",
        "   midi.NoteOnEvent(tick=1, channel=9, data=[75, 122]),\n",
        "   midi.NoteOnEvent(tick=0, channel=9, data=[70, 92]),\n",
        "   midi.NoteOnEvent(tick=1, channel=9, data=[75, 0]),\n",
        "   midi.NoteOnEvent(tick=0, channel=9, data=[70, 0]),\n",
        "   midi.NoteOnEvent(tick=92, channel=9, data=[62, 86]),\n",
        "   midi.NoteOnEvent(tick=1, channel=9, data=[62, 0]),\n",
        "   midi.NoteOnEvent(tick=0, channel=9, data=[42, 72]),\n",
        "   midi.NoteOnEvent(tick=1, channel=9, data=[42, 0]),\n",
        "   midi.NoteOnEvent(tick=93, channel=9, data=[70, 87]),\n",
        "   midi.NoteOnEvent(tick=1, channel=9, data=[70, 0]),\n",
        "   midi.NoteOnEvent(tick=3, channel=9, data=[42, 70]),\n",
        "   midi.NoteOnEvent(tick=1, channel=9, data=[42, 0]),\n",
        "   midi.NoteOnEvent(tick=91, channel=9, data=[42, 70]),\n",
        "   midi.NoteOnEvent(tick=0, channel=9, data=[60, 86]),\n",
        "   midi.NoteOnEvent(tick=1, channel=9, data=[42, 0]),\n",
        "   midi.NoteOnEvent(tick=0, channel=9, data=[60, 0]),\n",
        "   midi.NoteOnEvent(tick=2, channel=9, data=[75, 117]),\n",
        "   midi.NoteOnEvent(tick=1, channel=9, data=[75, 0]),\n",
        "   midi.NoteOnEvent(tick=94, channel=9, data=[70, 87]),\n",
        "   midi.NoteOnEvent(tick=1, channel=9, data=[42, 73]),\n",
        "   midi.NoteOnEvent(tick=0, channel=9, data=[70, 0]),\n",
        "   midi.NoteOnEvent(tick=1, channel=9, data=[42, 0]),\n",
        "   midi.NoteOnEvent(tick=92, channel=9, data=[64, 126]),\n",
        "   midi.NoteOnEvent(tick=1, channel=9, data=[46, 90]),\n",
        "   midi.NoteOnEvent(tick=0, channel=9, data=[64, 0]),\n",
        "   midi.NoteOnEvent(tick=1, channel=9, data=[46, 0]),\n",
        "   midi.NoteOnEvent(tick=2, channel=9, data=[42, 73]),\n",
        "   midi.NoteOnEvent(tick=1, channel=9, data=[42, 0]),\n",
        "   midi.NoteOnEvent(tick=91, channel=9, data=[42, 71]),\n",
        "   midi.NoteOnEvent(tick=0, channel=9, data=[64, 122]),\n",
        "   midi.NoteOnEvent(tick=1, channel=9, data=[42, 0]),\n",
        "   midi.NoteOnEvent(tick=0, channel=9, data=[75, 112]),\n",
        "   midi.NoteOnEvent(tick=0, channel=9, data=[64, 0]),\n",
        "   midi.NoteOnEvent(tick=0, channel=9, data=[70, 93]),\n",
        "   midi.NoteOnEvent(tick=1, channel=9, data=[75, 0]),\n",
        "   midi.NoteOnEvent(tick=0, channel=9, data=[70, 0]),\n",
        "   midi.NoteOnEvent(tick=94, channel=9, data=[60, 92]),\n",
        "   midi.NoteOnEvent(tick=1, channel=9, data=[42, 71]),\n",
        "   midi.NoteOnEvent(tick=0, channel=9, data=[60, 0]),\n",
        "   midi.NoteOnEvent(tick=1, channel=9, data=[42, 0]),\n",
        "   midi.NoteOnEvent(tick=96, channel=9, data=[42, 75]),\n",
        "   midi.NoteOnEvent(tick=0, channel=9, data=[75, 121]),\n",
        "   midi.NoteOnEvent(tick=0, channel=9, data=[70, 86]),\n",
        "   midi.NoteOnEvent(tick=1, channel=9, data=[42, 0]),\n",
        "   midi.NoteOnEvent(tick=0, channel=9, data=[75, 0]),\n",
        "   midi.NoteOnEvent(tick=0, channel=9, data=[70, 0]),\n",
        "   midi.NoteOnEvent(tick=94, channel=9, data=[70, 86]),\n",
        "   midi.NoteOnEvent(tick=1, channel=9, data=[42, 71]),\n",
        "   midi.NoteOnEvent(tick=0, channel=9, data=[70, 0]),\n",
        "   midi.NoteOnEvent(tick=1, channel=9, data=[42, 0]),\n",
        "   midi.NoteOnEvent(tick=93, channel=9, data=[42, 71]),\n",
        "   midi.NoteOnEvent(tick=1, channel=9, data=[42, 0]),\n",
        "   midi.NoteOnEvent(tick=3, channel=9, data=[62, 92]),\n",
        "   midi.NoteOnEvent(tick=0, channel=9, data=[70, 90]),\n",
        "   midi.NoteOnEvent(tick=1, channel=9, data=[62, 0]),\n",
        "   midi.NoteOnEvent(tick=0, channel=9, data=[70, 0]),\n",
        "   midi.NoteOnEvent(tick=92, channel=9, data=[42, 75]),\n",
        "   midi.NoteOnEvent(tick=1, channel=9, data=[42, 0]),\n",
        "   midi.NoteOnEvent(tick=0, channel=9, data=[70, 91]),\n",
        "   midi.NoteOnEvent(tick=1, channel=9, data=[75, 126]),\n",
        "   midi.NoteOnEvent(tick=0, channel=9, data=[70, 0]),\n",
        "   midi.NoteOnEvent(tick=1, channel=9, data=[75, 0]),\n",
        "   midi.NoteOnEvent(tick=92, channel=9, data=[42, 72]),\n",
        "   midi.NoteOnEvent(tick=0, channel=9, data=[70, 87]),\n",
        "   midi.NoteOnEvent(tick=1, channel=9, data=[42, 0]),\n",
        "   midi.NoteOnEvent(tick=0, channel=9, data=[70, 0]),\n",
        "   midi.NoteOnEvent(tick=2, channel=9, data=[61, 93]),\n",
        "   midi.NoteOnEvent(tick=1, channel=9, data=[61, 0]),\n",
        "   midi.NoteOnEvent(tick=92, channel=9, data=[42, 70]),\n",
        "   midi.NoteOnEvent(tick=1, channel=9, data=[42, 0]),\n",
        "   midi.NoteOnEvent(tick=2, channel=9, data=[46, 89]),\n",
        "   midi.NoteOnEvent(tick=1, channel=9, data=[46, 0]),\n",
        "   midi.NoteOnEvent(tick=0, channel=9, data=[70, 86]),\n",
        "   midi.NoteOnEvent(tick=1, channel=9, data=[70, 0]),\n",
        "   midi.NoteOnEvent(tick=92, channel=9, data=[75, 112]),\n",
        "   midi.NoteOnEvent(tick=1, channel=9, data=[75, 0]),\n",
        "   midi.NoteOnEvent(tick=1, channel=9, data=[64, 120]),\n",
        "   midi.NoteOnEvent(tick=1, channel=9, data=[42, 73]),\n",
        "   midi.NoteOnEvent(tick=0, channel=9, data=[64, 0]),\n",
        "   midi.NoteOnEvent(tick=0, channel=9, data=[70, 90]),\n",
        "   midi.NoteOnEvent(tick=1, channel=9, data=[42, 0]),\n",
        "   midi.NoteOnEvent(tick=0, channel=9, data=[70, 0]),\n",
        "   midi.NoteOnEvent(tick=92, channel=9, data=[70, 88]),\n",
        "   midi.NoteOnEvent(tick=1, channel=9, data=[42, 72]),\n",
        "   midi.NoteOnEvent(tick=0, channel=9, data=[70, 0]),\n",
        "   midi.NoteOnEvent(tick=1, channel=9, data=[42, 0]),\n",
        "   midi.NoteOnEvent(tick=95, channel=9, data=[42, 71]),\n",
        "   midi.NoteOnEvent(tick=0, channel=9, data=[75, 127]),\n",
        "   midi.NoteOnEvent(tick=0, channel=9, data=[70, 93]),\n",
        "   midi.NoteOnEvent(tick=1, channel=9, data=[42, 0]),\n",
        "   midi.NoteOnEvent(tick=0, channel=9, data=[75, 0]),\n",
        "   midi.NoteOnEvent(tick=0, channel=9, data=[70, 0]),\n",
        "   midi.NoteOnEvent(tick=93, channel=9, data=[62, 87]),\n",
        "   midi.NoteOnEvent(tick=0, channel=9, data=[42, 72]),\n",
        "   midi.NoteOnEvent(tick=0, channel=9, data=[70, 86]),\n",
        "   midi.NoteOnEvent(tick=1, channel=9, data=[62, 0]),\n",
        "   midi.NoteOnEvent(tick=0, channel=9, data=[42, 0]),\n",
        "   midi.NoteOnEvent(tick=0, channel=9, data=[70, 0]),\n",
        "   midi.NoteOnEvent(tick=96, channel=9, data=[42, 75]),\n",
        "   midi.NoteOnEvent(tick=1, channel=9, data=[42, 0]),\n",
        "   midi.NoteOnEvent(tick=0, channel=9, data=[70, 93]),\n",
        "   midi.NoteOnEvent(tick=1, channel=9, data=[70, 0]),\n",
        "   midi.NoteOnEvent(tick=93, channel=9, data=[42, 75]),\n",
        "   midi.NoteOnEvent(tick=1, channel=9, data=[42, 0]),\n",
        "   midi.NoteOnEvent(tick=0, channel=9, data=[60, 91]),\n",
        "   midi.NoteOnEvent(tick=0, channel=9, data=[70, 92]),\n",
        "   midi.NoteOnEvent(tick=1, channel=9, data=[60, 0]),\n",
        "   midi.NoteOnEvent(tick=0, channel=9, data=[70, 0]),\n",
        "   midi.NoteOnEvent(tick=2, channel=9, data=[75, 116]),\n",
        "   midi.NoteOnEvent(tick=1, channel=9, data=[75, 0]),\n",
        "   midi.NoteOnEvent(tick=91, channel=9, data=[70, 91]),\n",
        "   midi.NoteOnEvent(tick=1, channel=9, data=[70, 0]),\n",
        "   midi.NoteOnEvent(tick=1, channel=9, data=[42, 73]),\n",
        "   midi.NoteOnEvent(tick=1, channel=9, data=[42, 0]),\n",
        "   midi.NoteOnEvent(tick=93, channel=9, data=[64, 118]),\n",
        "   midi.NoteOnEvent(tick=0, channel=9, data=[70, 87]),\n",
        "   midi.NoteOnEvent(tick=1, channel=9, data=[64, 0]),\n",
        "   midi.NoteOnEvent(tick=0, channel=9, data=[70, 0]),\n",
        "   midi.NoteOnEvent(tick=1, channel=9, data=[42, 70]),\n",
        "   midi.NoteOnEvent(tick=1, channel=9, data=[42, 0]),\n",
        "   midi.NoteOnEvent(tick=93, channel=9, data=[42, 71]),\n",
        "   midi.NoteOnEvent(tick=0, channel=9, data=[75, 121]),\n",
        "   midi.NoteOnEvent(tick=1, channel=9, data=[42, 0]),\n",
        "   midi.NoteOnEvent(tick=0, channel=9, data=[75, 0]),\n",
        "   midi.NoteOnEvent(tick=0, channel=9, data=[70, 87]),\n",
        "   midi.NoteOnEvent(tick=1, channel=9, data=[70, 0]),\n",
        "   midi.NoteOnEvent(tick=1, channel=9, data=[64, 120]),\n",
        "   midi.NoteOnEvent(tick=1, channel=9, data=[64, 0]),\n",
        "   midi.NoteOnEvent(tick=92, channel=9, data=[42, 72]),\n",
        "   midi.NoteOnEvent(tick=1, channel=9, data=[42, 0]),\n",
        "   midi.NoteOnEvent(tick=1, channel=9, data=[60, 88]),\n",
        "   midi.NoteOnEvent(tick=1, channel=9, data=[60, 0]),\n",
        "   midi.NoteOnEvent(tick=1, channel=9, data=[70, 92]),\n",
        "   midi.NoteOnEvent(tick=1, channel=9, data=[70, 0]),\n",
        "   midi.NoteOnEvent(tick=93, channel=9, data=[42, 73]),\n",
        "   midi.NoteOnEvent(tick=0, channel=9, data=[75, 116]),\n",
        "   midi.NoteOnEvent(tick=1, channel=9, data=[42, 0]),\n",
        "   midi.NoteOnEvent(tick=0, channel=9, data=[75, 0]),\n",
        "   midi.NoteOnEvent(tick=0, channel=9, data=[70, 93]),\n",
        "   midi.NoteOnEvent(tick=1, channel=9, data=[70, 0]),\n",
        "   midi.NoteOnEvent(tick=94, channel=9, data=[42, 70]),\n",
        "   midi.NoteOnEvent(tick=1, channel=9, data=[42, 0]),\n",
        "   midi.NoteOnEvent(tick=0, channel=9, data=[70, 89]),\n",
        "   midi.NoteOnEvent(tick=1, channel=9, data=[70, 0]),\n",
        "   midi.NoteOnEvent(tick=94, channel=9, data=[42, 73]),\n",
        "   midi.NoteOnEvent(tick=1, channel=9, data=[62, 89]),\n",
        "   midi.NoteOnEvent(tick=0, channel=9, data=[42, 0]),\n",
        "   midi.NoteOnEvent(tick=0, channel=9, data=[70, 91]),\n",
        "   midi.NoteOnEvent(tick=1, channel=9, data=[62, 0]),\n",
        "   midi.NoteOnEvent(tick=0, channel=9, data=[70, 0]),\n",
        "   midi.NoteOnEvent(tick=92, channel=9, data=[70, 88]),\n",
        "   midi.NoteOnEvent(tick=1, channel=9, data=[70, 0]),\n",
        "   midi.NoteOnEvent(tick=3, channel=9, data=[42, 74]),\n",
        "   midi.NoteOnEvent(tick=1, channel=9, data=[42, 0]),\n",
        "   midi.NoteOnEvent(tick=92, channel=9, data=[70, 86]),\n",
        "   midi.NoteOnEvent(tick=1, channel=9, data=[42, 73]),\n",
        "   midi.NoteOnEvent(tick=0, channel=9, data=[70, 0]),\n",
        "   midi.NoteOnEvent(tick=1, channel=9, data=[42, 0]),\n",
        "   midi.NoteOnEvent(tick=0, channel=9, data=[61, 90]),\n",
        "   midi.NoteOnEvent(tick=1, channel=9, data=[61, 0]),\n",
        "   midi.NoteOnEvent(tick=93, channel=9, data=[46, 93]),\n",
        "   midi.NoteOnEvent(tick=1, channel=9, data=[46, 0]),\n",
        "   midi.NoteOnEvent(tick=2, channel=9, data=[42, 70]),\n",
        "   midi.NoteOnEvent(tick=0, channel=9, data=[75, 116]),\n",
        "   midi.NoteOnEvent(tick=0, channel=9, data=[70, 93]),\n",
        "   midi.NoteOnEvent(tick=1, channel=9, data=[42, 0]),\n",
        "   midi.NoteOnEvent(tick=0, channel=9, data=[75, 0]),\n",
        "   midi.NoteOnEvent(tick=0, channel=9, data=[70, 0]),\n",
        "   midi.NoteOnEvent(tick=91, channel=9, data=[64, 120]),\n",
        "   midi.NoteOnEvent(tick=1, channel=9, data=[64, 0]),\n",
        "   midi.NoteOnEvent(tick=1, channel=9, data=[70, 90]),\n",
        "   midi.NoteOnEvent(tick=1, channel=9, data=[42, 71]),\n",
        "   midi.NoteOnEvent(tick=0, channel=9, data=[70, 0]),\n",
        "   midi.NoteOnEvent(tick=1, channel=9, data=[42, 0]),\n",
        "   midi.NoteOnEvent(tick=93, channel=9, data=[70, 89]),\n",
        "   midi.NoteOnEvent(tick=1, channel=9, data=[42, 73]),\n",
        "   midi.NoteOnEvent(tick=0, channel=9, data=[70, 0]),\n",
        "   midi.NoteOnEvent(tick=1, channel=9, data=[42, 0]),\n",
        "   midi.NoteOnEvent(tick=95, channel=9, data=[42, 71]),\n",
        "   midi.NoteOnEvent(tick=1, channel=9, data=[42, 0]),\n",
        "   midi.NoteOnEvent(tick=0, channel=9, data=[70, 90]),\n",
        "   midi.NoteOnEvent(tick=1, channel=9, data=[70, 0]),\n",
        "   midi.NoteOnEvent(tick=92, channel=9, data=[42, 70]),\n",
        "   midi.NoteOnEvent(tick=0, channel=9, data=[75, 124]),\n",
        "   midi.NoteOnEvent(tick=0, channel=9, data=[70, 89]),\n",
        "   midi.NoteOnEvent(tick=1, channel=9, data=[42, 0]),\n",
        "   midi.NoteOnEvent(tick=0, channel=9, data=[75, 0]),\n",
        "   midi.NoteOnEvent(tick=0, channel=9, data=[70, 0]),\n",
        "   midi.NoteOnEvent(tick=3, channel=9, data=[62, 92]),\n",
        "   midi.NoteOnEvent(tick=1, channel=9, data=[62, 0]),\n",
        "   midi.NoteOnEvent(tick=92, channel=9, data=[70, 87]),\n",
        "   midi.NoteOnEvent(tick=1, channel=9, data=[70, 0]),\n",
        "   midi.NoteOnEvent(tick=1, channel=9, data=[42, 74]),\n",
        "   midi.NoteOnEvent(tick=1, channel=9, data=[42, 0]),\n",
        "   midi.NoteOnEvent(tick=92, channel=9, data=[42, 71]),\n",
        "   midi.NoteOnEvent(tick=1, channel=9, data=[42, 0]),\n",
        "   midi.NoteOnEvent(tick=1, channel=9, data=[70, 92]),\n",
        "   midi.NoteOnEvent(tick=1, channel=9, data=[70, 0]),\n",
        "   midi.NoteOnEvent(tick=1, channel=9, data=[60, 93]),\n",
        "   midi.NoteOnEvent(tick=1, channel=9, data=[60, 0]),\n",
        "   midi.NoteOnEvent(tick=92, channel=9, data=[42, 74]),\n",
        "   midi.NoteOnEvent(tick=1, channel=9, data=[42, 0]),\n",
        "   midi.NoteOnEvent(tick=0, channel=9, data=[70, 91]),\n",
        "   midi.NoteOnEvent(tick=1, channel=9, data=[70, 0]),\n",
        "   midi.NoteOnEvent(tick=93, channel=9, data=[75, 115]),\n",
        "   midi.NoteOnEvent(tick=1, channel=9, data=[75, 0]),\n",
        "   midi.NoteOnEvent(tick=1, channel=9, data=[75, 126]),\n",
        "   midi.NoteOnEvent(tick=1, channel=9, data=[42, 74]),\n",
        "   midi.NoteOnEvent(tick=0, channel=9, data=[75, 0]),\n",
        "   midi.NoteOnEvent(tick=0, channel=9, data=[64, 117]),\n",
        "   midi.NoteOnEvent(tick=1, channel=9, data=[42, 0]),\n",
        "   midi.NoteOnEvent(tick=0, channel=9, data=[64, 0]),\n",
        "   midi.NoteOnEvent(tick=0, channel=9, data=[70, 87]),\n",
        "   midi.NoteOnEvent(tick=1, channel=9, data=[70, 0]),\n",
        "   midi.NoteOnEvent(tick=92, channel=9, data=[70, 93]),\n",
        "   midi.NoteOnEvent(tick=1, channel=9, data=[70, 0]),\n",
        "   midi.NoteOnEvent(tick=1, channel=9, data=[42, 73]),\n",
        "   midi.NoteOnEvent(tick=1, channel=9, data=[42, 0]),\n",
        "   midi.NoteOnEvent(tick=0, channel=9, data=[64, 116]),\n",
        "   midi.NoteOnEvent(tick=1, channel=9, data=[64, 0]),\n",
        "   midi.NoteOnEvent(tick=91, channel=9, data=[60, 87]),\n",
        "   midi.NoteOnEvent(tick=1, channel=9, data=[60, 0]),\n",
        "   midi.NoteOnEvent(tick=2, channel=9, data=[70, 92]),\n",
        "   midi.NoteOnEvent(tick=1, channel=9, data=[42, 72]),\n",
        "   midi.NoteOnEvent(tick=0, channel=9, data=[70, 0]),\n",
        "   midi.NoteOnEvent(tick=1, channel=9, data=[42, 0]),\n",
        "   midi.NoteOnEvent(tick=93, channel=9, data=[42, 72]),\n",
        "   midi.NoteOnEvent(tick=1, channel=9, data=[42, 0]),\n",
        "   midi.NoteOnEvent(tick=0, channel=9, data=[70, 92]),\n",
        "   midi.NoteOnEvent(tick=1, channel=9, data=[70, 0]),\n",
        "   midi.NoteOnEvent(tick=92, channel=9, data=[42, 74]),\n",
        "   midi.NoteOnEvent(tick=0, channel=9, data=[75, 115]),\n",
        "   midi.NoteOnEvent(tick=0, channel=9, data=[70, 90]),\n",
        "   midi.NoteOnEvent(tick=1, channel=9, data=[42, 0]),\n",
        "   midi.NoteOnEvent(tick=0, channel=9, data=[75, 0]),\n",
        "   midi.NoteOnEvent(tick=0, channel=9, data=[70, 0]),\n",
        "   midi.NoteOnEvent(tick=95, channel=9, data=[42, 72]),\n",
        "   midi.NoteOnEvent(tick=1, channel=9, data=[42, 0]),\n",
        "   midi.NoteOnEvent(tick=0, channel=9, data=[70, 88]),\n",
        "   midi.NoteOnEvent(tick=1, channel=9, data=[62, 90]),\n",
        "   midi.NoteOnEvent(tick=0, channel=9, data=[70, 0]),\n",
        "   midi.NoteOnEvent(tick=1, channel=9, data=[62, 0]),\n",
        "   midi.NoteOnEvent(tick=94, channel=9, data=[42, 75]),\n",
        "   midi.NoteOnEvent(tick=1, channel=9, data=[42, 0]),\n",
        "   midi.NoteOnEvent(tick=2, channel=9, data=[70, 92]),\n",
        "   midi.NoteOnEvent(tick=1, channel=9, data=[70, 0]),\n",
        "   midi.NoteOnEvent(tick=91, channel=9, data=[63, 91]),\n",
        "   midi.NoteOnEvent(tick=1, channel=9, data=[63, 0]),\n",
        "   midi.NoteOnEvent(tick=0, channel=9, data=[61, 87]),\n",
        "   midi.NoteOnEvent(tick=1, channel=9, data=[42, 75]),\n",
        "   midi.NoteOnEvent(tick=0, channel=9, data=[61, 0]),\n",
        "   midi.NoteOnEvent(tick=0, channel=9, data=[70, 92]),\n",
        "   midi.NoteOnEvent(tick=1, channel=9, data=[42, 0]),\n",
        "   midi.NoteOnEvent(tick=0, channel=9, data=[70, 0]),\n",
        "   midi.NoteOnEvent(tick=93, channel=9, data=[42, 72]),\n",
        "   midi.NoteOnEvent(tick=1, channel=9, data=[42, 0]),\n",
        "   midi.NoteOnEvent(tick=3, channel=9, data=[75, 114]),\n",
        "   midi.NoteOnEvent(tick=0, channel=9, data=[70, 90]),\n",
        "   midi.NoteOnEvent(tick=1, channel=9, data=[75, 0]),\n",
        "   midi.NoteOnEvent(tick=0, channel=9, data=[70, 0]),\n",
        "   midi.NoteOnEvent(tick=92, channel=9, data=[42, 71]),\n",
        "   midi.NoteOnEvent(tick=1, channel=9, data=[42, 0]),\n",
        "   midi.NoteOnEvent(tick=0, channel=9, data=[64, 119]),\n",
        "   midi.NoteOnEvent(tick=1, channel=9, data=[64, 0]),\n",
        "   midi.NoteOnEvent(tick=1, channel=9, data=[70, 87]),\n",
        "   midi.NoteOnEvent(tick=1, channel=9, data=[70, 0]),\n",
        "   midi.NoteOnEvent(tick=91, channel=9, data=[70, 89]),\n",
        "   midi.NoteOnEvent(tick=1, channel=9, data=[70, 0]),\n",
        "   midi.NoteOnEvent(tick=1, channel=9, data=[42, 70]),\n",
        "   midi.NoteOnEvent(tick=1, channel=9, data=[42, 0]),\n",
        "   midi.NoteOnEvent(tick=95, channel=9, data=[42, 72]),\n",
        "   midi.NoteOnEvent(tick=1, channel=9, data=[42, 0]),\n",
        "   midi.NoteOnEvent(tick=1, channel=9, data=[70, 90]),\n",
        "   midi.NoteOnEvent(tick=1, channel=9, data=[70, 0]),\n",
        "   midi.NoteOnEvent(tick=92, channel=9, data=[70, 88]),\n",
        "   midi.NoteOnEvent(tick=1, channel=9, data=[62, 88]),\n",
        "   midi.NoteOnEvent(tick=0, channel=9, data=[75, 110]),\n",
        "   midi.NoteOnEvent(tick=0, channel=9, data=[70, 0]),\n",
        "   midi.NoteOnEvent(tick=1, channel=9, data=[62, 0]),\n",
        "   midi.NoteOnEvent(tick=0, channel=9, data=[75, 0]),\n",
        "   midi.NoteOnEvent(tick=1, channel=9, data=[42, 74]),\n",
        "   midi.NoteOnEvent(tick=1, channel=9, data=[42, 0]),\n",
        "   midi.NoteOnEvent(tick=92, channel=9, data=[42, 72]),\n",
        "   midi.NoteOnEvent(tick=1, channel=9, data=[42, 0]),\n",
        "   midi.NoteOnEvent(tick=0, channel=9, data=[70, 86]),\n",
        "   midi.NoteOnEvent(tick=1, channel=9, data=[70, 0]),\n",
        "   midi.NoteOnEvent(tick=93, channel=9, data=[60, 86]),\n",
        "   midi.NoteOnEvent(tick=1, channel=9, data=[42, 75]),\n",
        "   midi.NoteOnEvent(tick=0, channel=9, data=[60, 0]),\n",
        "   midi.NoteOnEvent(tick=1, channel=9, data=[42, 0]),\n",
        "   midi.NoteOnEvent(tick=1, channel=9, data=[70, 88]),\n",
        "   midi.NoteOnEvent(tick=1, channel=9, data=[70, 0]),\n",
        "   midi.NoteOnEvent(tick=92, channel=9, data=[42, 70]),\n",
        "   midi.NoteOnEvent(tick=1, channel=9, data=[42, 0]),\n",
        "   midi.NoteOnEvent(tick=0, channel=9, data=[70, 89]),\n",
        "   midi.NoteOnEvent(tick=1, channel=9, data=[70, 0]),\n",
        "   midi.NoteOnEvent(tick=94, channel=9, data=[75, 127]),\n",
        "   midi.NoteOnEvent(tick=1, channel=9, data=[75, 0]),\n",
        "   midi.NoteOnEvent(tick=1, channel=9, data=[75, 126]),\n",
        "   midi.NoteOnEvent(tick=0, channel=9, data=[64, 124]),\n",
        "   midi.NoteOnEvent(tick=1, channel=9, data=[42, 72]),\n",
        "   midi.NoteOnEvent(tick=0, channel=9, data=[75, 0]),\n",
        "   midi.NoteOnEvent(tick=0, channel=9, data=[64, 0]),\n",
        "   midi.NoteOnEvent(tick=1, channel=9, data=[42, 0]),\n",
        "   midi.NoteOnEvent(tick=0, channel=9, data=[70, 89]),\n",
        "   midi.NoteOnEvent(tick=1, channel=9, data=[70, 0]),\n",
        "   midi.NoteOnEvent(tick=92, channel=9, data=[70, 88]),\n",
        "   midi.NoteOnEvent(tick=1, channel=9, data=[70, 0]),\n",
        "   midi.NoteOnEvent(tick=1, channel=9, data=[42, 72]),\n",
        "   midi.NoteOnEvent(tick=1, channel=9, data=[42, 0]),\n",
        "   midi.NoteOnEvent(tick=0, channel=9, data=[64, 124]),\n",
        "   midi.NoteOnEvent(tick=1, channel=9, data=[64, 0]),\n",
        "   midi.NoteOnEvent(tick=93, channel=9, data=[70, 93]),\n",
        "   midi.NoteOnEvent(tick=1, channel=9, data=[42, 71]),\n",
        "   midi.NoteOnEvent(tick=0, channel=9, data=[60, 92]),\n",
        "   midi.NoteOnEvent(tick=0, channel=9, data=[70, 0]),\n",
        "   midi.NoteOnEvent(tick=1, channel=9, data=[42, 0]),\n",
        "   midi.NoteOnEvent(tick=0, channel=9, data=[60, 0]),\n",
        "   midi.EndOfTrackEvent(tick=0, data=[])]),\n",
        " midi.Track(\\\n",
        "  [midi.TrackNameEvent(tick=0, text='Walk', data=[87, 97, 108, 107]),\n",
        "   midi.ProgramChangeEvent(tick=768, channel=13, data=[35]),\n",
        "   midi.NoteOnEvent(tick=0, channel=13, data=[41, 102]),\n",
        "   midi.NoteOnEvent(tick=105, channel=13, data=[41, 0]),\n",
        "   midi.NoteOnEvent(tick=179, channel=13, data=[45, 78]),\n",
        "   midi.NoteOnEvent(tick=105, channel=13, data=[45, 0]),\n",
        "   midi.NoteOnEvent(tick=185, channel=13, data=[45, 79]),\n",
        "   midi.NoteOnEvent(tick=105, channel=13, data=[45, 0]),\n",
        "   midi.NoteOnEvent(tick=857, channel=13, data=[41, 104]),\n",
        "   midi.NoteOnEvent(tick=105, channel=13, data=[41, 0]),\n",
        "   midi.NoteOnEvent(tick=183, channel=13, data=[43, 76]),\n",
        "   midi.NoteOnEvent(tick=105, channel=13, data=[43, 0]),\n",
        "   midi.NoteOnEvent(tick=181, channel=13, data=[45, 75]),\n",
        "   midi.NoteOnEvent(tick=102, channel=13, data=[46, 60]),\n",
        "   midi.NoteOnEvent(tick=3, channel=13, data=[45, 0]),\n",
        "   midi.NoteOnEvent(tick=49, channel=13, data=[46, 0]),\n",
        "   midi.NoteOnEvent(tick=809, channel=13, data=[41, 100]),\n",
        "   midi.NoteOnEvent(tick=105, channel=13, data=[41, 0]),\n",
        "   midi.NoteOnEvent(tick=185, channel=13, data=[43, 74]),\n",
        "   midi.NoteOnEvent(tick=105, channel=13, data=[43, 0]),\n",
        "   midi.NoteOnEvent(tick=177, channel=13, data=[45, 83]),\n",
        "   midi.NoteOnEvent(tick=105, channel=13, data=[45, 0]),\n",
        "   midi.NoteOnEvent(tick=861, channel=13, data=[43, 110]),\n",
        "   midi.NoteOnEvent(tick=105, channel=13, data=[43, 0]),\n",
        "   midi.NoteOnEvent(tick=183, channel=13, data=[45, 82]),\n",
        "   midi.NoteOnEvent(tick=105, channel=13, data=[45, 0]),\n",
        "   midi.NoteOnEvent(tick=183, channel=13, data=[48, 79]),\n",
        "   midi.NoteOnEvent(tick=90, channel=13, data=[48, 0]),\n",
        "   midi.NoteOnEvent(tick=0, channel=13, data=[48, 62]),\n",
        "   midi.NoteOnEvent(tick=52, channel=13, data=[48, 0]),\n",
        "   midi.NoteOnEvent(tick=819, channel=13, data=[46, 107]),\n",
        "   midi.NoteOnEvent(tick=105, channel=13, data=[46, 0]),\n",
        "   midi.NoteOnEvent(tick=181, channel=13, data=[46, 82]),\n",
        "   midi.NoteOnEvent(tick=105, channel=13, data=[46, 0]),\n",
        "   midi.NoteOnEvent(tick=179, channel=13, data=[43, 65]),\n",
        "   midi.NoteOnEvent(tick=105, channel=13, data=[43, 0]),\n",
        "   midi.NoteOnEvent(tick=861, channel=13, data=[41, 87]),\n",
        "   midi.NoteOnEvent(tick=105, channel=13, data=[41, 0]),\n",
        "   midi.NoteOnEvent(tick=178, channel=13, data=[43, 72]),\n",
        "   midi.NoteOnEvent(tick=105, channel=13, data=[43, 0]),\n",
        "   midi.NoteOnEvent(tick=185, channel=13, data=[45, 67]),\n",
        "   midi.NoteOnEvent(tick=99, channel=13, data=[48, 61]),\n",
        "   midi.NoteOnEvent(tick=6, channel=13, data=[45, 0]),\n",
        "   midi.NoteOnEvent(tick=46, channel=13, data=[48, 0]),\n",
        "   midi.NoteOnEvent(tick=808, channel=13, data=[41, 92]),\n",
        "   midi.NoteOnEvent(tick=105, channel=13, data=[41, 0]),\n",
        "   midi.NoteOnEvent(tick=179, channel=13, data=[43, 88]),\n",
        "   midi.NoteOnEvent(tick=105, channel=13, data=[43, 0]),\n",
        "   midi.NoteOnEvent(tick=187, channel=13, data=[45, 69]),\n",
        "   midi.NoteOnEvent(tick=105, channel=13, data=[45, 0]),\n",
        "   midi.NoteOnEvent(tick=855, channel=13, data=[45, 108]),\n",
        "   midi.NoteOnEvent(tick=105, channel=13, data=[45, 0]),\n",
        "   midi.NoteOnEvent(tick=181, channel=13, data=[46, 89]),\n",
        "   midi.NoteOnEvent(tick=105, channel=13, data=[46, 0]),\n",
        "   midi.NoteOnEvent(tick=189, channel=13, data=[48, 65]),\n",
        "   midi.NoteOnEvent(tick=95, channel=13, data=[48, 0]),\n",
        "   midi.NoteOnEvent(tick=0, channel=13, data=[48, 66]),\n",
        "   midi.NoteOnEvent(tick=52, channel=13, data=[48, 0]),\n",
        "   midi.EndOfTrackEvent(tick=0, data=[])]),\n",
        " midi.Track(\\\n",
        "  [midi.TrackNameEvent(tick=0, text='Chord', data=[67, 104, 111, 114, 100]),\n",
        "   midi.ProgramChangeEvent(tick=0, channel=14, data=[1]),\n",
        "   midi.NoteOnEvent(tick=0, channel=14, data=[65, 86]),\n",
        "   midi.NoteOnEvent(tick=0, channel=14, data=[69, 83]),\n",
        "   midi.NoteOnEvent(tick=0, channel=14, data=[60, 94]),\n",
        "   midi.NoteOnEvent(tick=178, channel=14, data=[65, 0]),\n",
        "   midi.NoteOnEvent(tick=0, channel=14, data=[69, 0]),\n",
        "   midi.NoteOnEvent(tick=0, channel=14, data=[60, 0]),\n",
        "   midi.NoteOnEvent(tick=206, channel=14, data=[65, 82]),\n",
        "   midi.NoteOnEvent(tick=0, channel=14, data=[69, 86]),\n",
        "   midi.NoteOnEvent(tick=0, channel=14, data=[60, 80]),\n",
        "   midi.NoteOnEvent(tick=178, channel=14, data=[65, 0]),\n",
        "   midi.NoteOnEvent(tick=0, channel=14, data=[69, 0]),\n",
        "   midi.NoteOnEvent(tick=0, channel=14, data=[60, 0]),\n",
        "   midi.NoteOnEvent(tick=14, channel=14, data=[65, 76]),\n",
        "   midi.NoteOnEvent(tick=0, channel=14, data=[69, 75]),\n",
        "   midi.NoteOnEvent(tick=0, channel=14, data=[60, 71]),\n",
        "   midi.NoteOnEvent(tick=178, channel=14, data=[65, 0]),\n",
        "   midi.NoteOnEvent(tick=0, channel=14, data=[69, 0]),\n",
        "   midi.NoteOnEvent(tick=0, channel=14, data=[60, 0]),\n",
        "   midi.NoteOnEvent(tick=14, channel=14, data=[65, 88]),\n",
        "   midi.NoteOnEvent(tick=0, channel=14, data=[69, 84]),\n",
        "   midi.NoteOnEvent(tick=0, channel=14, data=[60, 83]),\n",
        "   midi.NoteOnEvent(tick=178, channel=14, data=[65, 0]),\n",
        "   midi.NoteOnEvent(tick=0, channel=14, data=[69, 0]),\n",
        "   midi.NoteOnEvent(tick=0, channel=14, data=[60, 0]),\n",
        "   midi.NoteOnEvent(tick=206, channel=14, data=[65, 86]),\n",
        "   midi.NoteOnEvent(tick=0, channel=14, data=[69, 74]),\n",
        "   midi.NoteOnEvent(tick=0, channel=14, data=[60, 82]),\n",
        "   midi.NoteOnEvent(tick=178, channel=14, data=[65, 0]),\n",
        "   midi.NoteOnEvent(tick=0, channel=14, data=[69, 0]),\n",
        "   midi.NoteOnEvent(tick=0, channel=14, data=[60, 0]),\n",
        "   midi.NoteOnEvent(tick=14, channel=14, data=[65, 76]),\n",
        "   midi.NoteOnEvent(tick=0, channel=14, data=[69, 70]),\n",
        "   midi.NoteOnEvent(tick=0, channel=14, data=[60, 72]),\n",
        "   midi.NoteOnEvent(tick=178, channel=14, data=[65, 0]),\n",
        "   midi.NoteOnEvent(tick=0, channel=14, data=[69, 0]),\n",
        "   midi.NoteOnEvent(tick=0, channel=14, data=[60, 0]),\n",
        "   midi.NoteOnEvent(tick=14, channel=14, data=[60, 95]),\n",
        "   midi.NoteOnEvent(tick=0, channel=14, data=[64, 94]),\n",
        "   midi.NoteOnEvent(tick=0, channel=14, data=[67, 83]),\n",
        "   midi.NoteOnEvent(tick=0, channel=14, data=[70, 90]),\n",
        "   midi.NoteOnEvent(tick=178, channel=14, data=[60, 0]),\n",
        "   midi.NoteOnEvent(tick=0, channel=14, data=[64, 0]),\n",
        "   midi.NoteOnEvent(tick=0, channel=14, data=[67, 0]),\n",
        "   midi.NoteOnEvent(tick=0, channel=14, data=[70, 0]),\n",
        "   midi.NoteOnEvent(tick=302, channel=14, data=[60, 79]),\n",
        "   midi.NoteOnEvent(tick=0, channel=14, data=[64, 76]),\n",
        "   midi.NoteOnEvent(tick=0, channel=14, data=[67, 67]),\n",
        "   midi.NoteOnEvent(tick=0, channel=14, data=[70, 77]),\n",
        "   midi.NoteOnEvent(tick=178, channel=14, data=[60, 0]),\n",
        "   midi.NoteOnEvent(tick=0, channel=14, data=[64, 0]),\n",
        "   midi.NoteOnEvent(tick=0, channel=14, data=[67, 0]),\n",
        "   midi.NoteOnEvent(tick=0, channel=14, data=[70, 0]),\n",
        "   midi.NoteOnEvent(tick=14, channel=14, data=[60, 69]),\n",
        "   midi.NoteOnEvent(tick=0, channel=14, data=[64, 69]),\n",
        "   midi.NoteOnEvent(tick=0, channel=14, data=[67, 69]),\n",
        "   midi.NoteOnEvent(tick=0, channel=14, data=[70, 77]),\n",
        "   midi.NoteOnEvent(tick=178, channel=14, data=[60, 0]),\n",
        "   midi.NoteOnEvent(tick=0, channel=14, data=[64, 0]),\n",
        "   midi.NoteOnEvent(tick=0, channel=14, data=[67, 0]),\n",
        "   midi.NoteOnEvent(tick=0, channel=14, data=[70, 0]),\n",
        "   midi.NoteOnEvent(tick=110, channel=14, data=[65, 77]),\n",
        "   midi.NoteOnEvent(tick=0, channel=14, data=[69, 75]),\n",
        "   midi.NoteOnEvent(tick=0, channel=14, data=[60, 79]),\n",
        "   midi.NoteOnEvent(tick=178, channel=14, data=[65, 0]),\n",
        "   midi.NoteOnEvent(tick=0, channel=14, data=[69, 0]),\n",
        "   midi.NoteOnEvent(tick=0, channel=14, data=[60, 0]),\n",
        "   midi.NoteOnEvent(tick=110, channel=14, data=[65, 71]),\n",
        "   midi.NoteOnEvent(tick=0, channel=14, data=[69, 71]),\n",
        "   midi.NoteOnEvent(tick=0, channel=14, data=[60, 79]),\n",
        "   midi.NoteOnEvent(tick=178, channel=14, data=[65, 0]),\n",
        "   midi.NoteOnEvent(tick=0, channel=14, data=[69, 0]),\n",
        "   midi.NoteOnEvent(tick=0, channel=14, data=[60, 0]),\n",
        "   midi.NoteOnEvent(tick=14, channel=14, data=[65, 79]),\n",
        "   midi.NoteOnEvent(tick=0, channel=14, data=[69, 69]),\n",
        "   midi.NoteOnEvent(tick=0, channel=14, data=[60, 66]),\n",
        "   midi.NoteOnEvent(tick=96, channel=14, data=[65, 0]),\n",
        "   midi.NoteOnEvent(tick=0, channel=14, data=[65, 94]),\n",
        "   midi.NoteOnEvent(tick=0, channel=14, data=[69, 0]),\n",
        "   midi.NoteOnEvent(tick=0, channel=14, data=[69, 81]),\n",
        "   midi.NoteOnEvent(tick=0, channel=14, data=[60, 0]),\n",
        "   midi.NoteOnEvent(tick=0, channel=14, data=[60, 90]),\n",
        "   midi.NoteOnEvent(tick=178, channel=14, data=[65, 0]),\n",
        "   midi.NoteOnEvent(tick=0, channel=14, data=[69, 0]),\n",
        "   midi.NoteOnEvent(tick=0, channel=14, data=[60, 0]),\n",
        "   midi.NoteOnEvent(tick=302, channel=14, data=[65, 74]),\n",
        "   midi.NoteOnEvent(tick=0, channel=14, data=[69, 78]),\n",
        "   midi.NoteOnEvent(tick=0, channel=14, data=[60, 76]),\n",
        "   midi.NoteOnEvent(tick=178, channel=14, data=[65, 0]),\n",
        "   midi.NoteOnEvent(tick=0, channel=14, data=[69, 0]),\n",
        "   midi.NoteOnEvent(tick=0, channel=14, data=[60, 0]),\n",
        "   midi.NoteOnEvent(tick=14, channel=14, data=[65, 70]),\n",
        "   midi.NoteOnEvent(tick=0, channel=14, data=[69, 68]),\n",
        "   midi.NoteOnEvent(tick=0, channel=14, data=[60, 71]),\n",
        "   midi.NoteOnEvent(tick=178, channel=14, data=[65, 0]),\n",
        "   midi.NoteOnEvent(tick=0, channel=14, data=[69, 0]),\n",
        "   midi.NoteOnEvent(tick=0, channel=14, data=[60, 0]),\n",
        "   midi.NoteOnEvent(tick=110, channel=14, data=[65, 77]),\n",
        "   midi.NoteOnEvent(tick=0, channel=14, data=[69, 66]),\n",
        "   midi.NoteOnEvent(tick=0, channel=14, data=[60, 70]),\n",
        "   midi.NoteOnEvent(tick=178, channel=14, data=[65, 0]),\n",
        "   midi.NoteOnEvent(tick=0, channel=14, data=[69, 0]),\n",
        "   midi.NoteOnEvent(tick=0, channel=14, data=[60, 0]),\n",
        "   midi.NoteOnEvent(tick=110, channel=14, data=[65, 77]),\n",
        "   midi.NoteOnEvent(tick=0, channel=14, data=[69, 70]),\n",
        "   midi.NoteOnEvent(tick=0, channel=14, data=[60, 68]),\n",
        "   midi.NoteOnEvent(tick=178, channel=14, data=[65, 0]),\n",
        "   midi.NoteOnEvent(tick=0, channel=14, data=[69, 0]),\n",
        "   midi.NoteOnEvent(tick=0, channel=14, data=[60, 0]),\n",
        "   midi.NoteOnEvent(tick=14, channel=14, data=[65, 76]),\n",
        "   midi.NoteOnEvent(tick=0, channel=14, data=[69, 72]),\n",
        "   midi.NoteOnEvent(tick=0, channel=14, data=[60, 72]),\n",
        "   midi.NoteOnEvent(tick=178, channel=14, data=[65, 0]),\n",
        "   midi.NoteOnEvent(tick=0, channel=14, data=[69, 0]),\n",
        "   midi.NoteOnEvent(tick=0, channel=14, data=[60, 0]),\n",
        "   midi.NoteOnEvent(tick=110, channel=14, data=[60, 78]),\n",
        "   midi.NoteOnEvent(tick=0, channel=14, data=[64, 77]),\n",
        "   midi.NoteOnEvent(tick=0, channel=14, data=[67, 73]),\n",
        "   midi.NoteOnEvent(tick=0, channel=14, data=[70, 71]),\n",
        "   midi.NoteOnEvent(tick=178, channel=14, data=[60, 0]),\n",
        "   midi.NoteOnEvent(tick=0, channel=14, data=[64, 0]),\n",
        "   midi.NoteOnEvent(tick=0, channel=14, data=[67, 0]),\n",
        "   midi.NoteOnEvent(tick=0, channel=14, data=[70, 0]),\n",
        "   midi.NoteOnEvent(tick=110, channel=14, data=[60, 75]),\n",
        "   midi.NoteOnEvent(tick=0, channel=14, data=[64, 66]),\n",
        "   midi.NoteOnEvent(tick=0, channel=14, data=[67, 78]),\n",
        "   midi.NoteOnEvent(tick=0, channel=14, data=[70, 66]),\n",
        "   midi.NoteOnEvent(tick=178, channel=14, data=[60, 0]),\n",
        "   midi.NoteOnEvent(tick=0, channel=14, data=[64, 0]),\n",
        "   midi.NoteOnEvent(tick=0, channel=14, data=[67, 0]),\n",
        "   midi.NoteOnEvent(tick=0, channel=14, data=[70, 0]),\n",
        "   midi.NoteOnEvent(tick=14, channel=14, data=[60, 69]),\n",
        "   midi.NoteOnEvent(tick=0, channel=14, data=[64, 74]),\n",
        "   midi.NoteOnEvent(tick=0, channel=14, data=[67, 72]),\n",
        "   midi.NoteOnEvent(tick=0, channel=14, data=[70, 76]),\n",
        "   midi.NoteOnEvent(tick=96, channel=14, data=[65, 92]),\n",
        "   midi.NoteOnEvent(tick=0, channel=14, data=[69, 91]),\n",
        "   midi.NoteOnEvent(tick=0, channel=14, data=[60, 0]),\n",
        "   midi.NoteOnEvent(tick=0, channel=14, data=[60, 86]),\n",
        "   midi.NoteOnEvent(tick=82, channel=14, data=[64, 0]),\n",
        "   midi.NoteOnEvent(tick=0, channel=14, data=[67, 0]),\n",
        "   midi.NoteOnEvent(tick=0, channel=14, data=[70, 0]),\n",
        "   midi.NoteOnEvent(tick=96, channel=14, data=[65, 0]),\n",
        "   midi.NoteOnEvent(tick=0, channel=14, data=[69, 0]),\n",
        "   midi.NoteOnEvent(tick=0, channel=14, data=[60, 0]),\n",
        "   midi.NoteOnEvent(tick=302, channel=14, data=[65, 68]),\n",
        "   midi.NoteOnEvent(tick=0, channel=14, data=[69, 67]),\n",
        "   midi.NoteOnEvent(tick=0, channel=14, data=[60, 70]),\n",
        "   midi.NoteOnEvent(tick=178, channel=14, data=[65, 0]),\n",
        "   midi.NoteOnEvent(tick=0, channel=14, data=[69, 0]),\n",
        "   midi.NoteOnEvent(tick=0, channel=14, data=[60, 0]),\n",
        "   midi.NoteOnEvent(tick=14, channel=14, data=[65, 74]),\n",
        "   midi.NoteOnEvent(tick=0, channel=14, data=[69, 77]),\n",
        "   midi.NoteOnEvent(tick=0, channel=14, data=[60, 74]),\n",
        "   midi.NoteOnEvent(tick=96, channel=14, data=[67, 87]),\n",
        "   midi.NoteOnEvent(tick=0, channel=14, data=[70, 86]),\n",
        "   midi.NoteOnEvent(tick=0, channel=14, data=[62, 93]),\n",
        "   midi.NoteOnEvent(tick=82, channel=14, data=[65, 0]),\n",
        "   midi.NoteOnEvent(tick=0, channel=14, data=[69, 0]),\n",
        "   midi.NoteOnEvent(tick=0, channel=14, data=[60, 0]),\n",
        "   midi.NoteOnEvent(tick=96, channel=14, data=[67, 0]),\n",
        "   midi.NoteOnEvent(tick=0, channel=14, data=[70, 0]),\n",
        "   midi.NoteOnEvent(tick=0, channel=14, data=[62, 0]),\n",
        "   midi.NoteOnEvent(tick=206, channel=14, data=[67, 82]),\n",
        "   midi.NoteOnEvent(tick=0, channel=14, data=[70, 77]),\n",
        "   midi.NoteOnEvent(tick=0, channel=14, data=[62, 82]),\n",
        "   midi.NoteOnEvent(tick=178, channel=14, data=[67, 0]),\n",
        "   midi.NoteOnEvent(tick=0, channel=14, data=[70, 0]),\n",
        "   midi.NoteOnEvent(tick=0, channel=14, data=[62, 0]),\n",
        "   midi.NoteOnEvent(tick=14, channel=14, data=[67, 66]),\n",
        "   midi.NoteOnEvent(tick=0, channel=14, data=[70, 79]),\n",
        "   midi.NoteOnEvent(tick=0, channel=14, data=[62, 70]),\n",
        "   midi.NoteOnEvent(tick=178, channel=14, data=[67, 0]),\n",
        "   midi.NoteOnEvent(tick=0, channel=14, data=[70, 0]),\n",
        "   midi.NoteOnEvent(tick=0, channel=14, data=[62, 0]),\n",
        "   midi.NoteOnEvent(tick=206, channel=14, data=[65, 77]),\n",
        "   midi.NoteOnEvent(tick=0, channel=14, data=[69, 76]),\n",
        "   midi.NoteOnEvent(tick=0, channel=14, data=[60, 73]),\n",
        "   midi.NoteOnEvent(tick=178, channel=14, data=[65, 0]),\n",
        "   midi.NoteOnEvent(tick=0, channel=14, data=[69, 0]),\n",
        "   midi.NoteOnEvent(tick=0, channel=14, data=[60, 0]),\n",
        "   midi.NoteOnEvent(tick=110, channel=14, data=[65, 73]),\n",
        "   midi.NoteOnEvent(tick=0, channel=14, data=[69, 76]),\n",
        "   midi.NoteOnEvent(tick=0, channel=14, data=[60, 74]),\n",
        "   midi.NoteOnEvent(tick=178, channel=14, data=[65, 0]),\n",
        "   midi.NoteOnEvent(tick=0, channel=14, data=[69, 0]),\n",
        "   midi.NoteOnEvent(tick=0, channel=14, data=[60, 0]),\n",
        "   midi.NoteOnEvent(tick=14, channel=14, data=[65, 69]),\n",
        "   midi.NoteOnEvent(tick=0, channel=14, data=[69, 69]),\n",
        "   midi.NoteOnEvent(tick=0, channel=14, data=[60, 69]),\n",
        "   midi.NoteOnEvent(tick=96, channel=14, data=[60, 0]),\n",
        "   midi.NoteOnEvent(tick=0, channel=14, data=[60, 88]),\n",
        "   midi.NoteOnEvent(tick=0, channel=14, data=[64, 80]),\n",
        "   midi.NoteOnEvent(tick=0, channel=14, data=[67, 83]),\n",
        "   midi.NoteOnEvent(tick=0, channel=14, data=[70, 84]),\n",
        "   midi.NoteOnEvent(tick=82, channel=14, data=[65, 0]),\n",
        "   midi.NoteOnEvent(tick=0, channel=14, data=[69, 0]),\n",
        "   midi.NoteOnEvent(tick=96, channel=14, data=[60, 0]),\n",
        "   midi.NoteOnEvent(tick=0, channel=14, data=[64, 0]),\n",
        "   midi.NoteOnEvent(tick=0, channel=14, data=[67, 0]),\n",
        "   midi.NoteOnEvent(tick=0, channel=14, data=[70, 0]),\n",
        "   midi.NoteOnEvent(tick=302, channel=14, data=[60, 79]),\n",
        "   midi.NoteOnEvent(tick=0, channel=14, data=[64, 68]),\n",
        "   midi.NoteOnEvent(tick=0, channel=14, data=[67, 69]),\n",
        "   midi.NoteOnEvent(tick=0, channel=14, data=[70, 75]),\n",
        "   midi.NoteOnEvent(tick=178, channel=14, data=[60, 0]),\n",
        "   midi.NoteOnEvent(tick=0, channel=14, data=[64, 0]),\n",
        "   midi.NoteOnEvent(tick=0, channel=14, data=[67, 0]),\n",
        "   midi.NoteOnEvent(tick=0, channel=14, data=[70, 0]),\n",
        "   midi.NoteOnEvent(tick=14, channel=14, data=[60, 74]),\n",
        "   midi.NoteOnEvent(tick=0, channel=14, data=[64, 69]),\n",
        "   midi.NoteOnEvent(tick=0, channel=14, data=[67, 75]),\n",
        "   midi.NoteOnEvent(tick=0, channel=14, data=[70, 68]),\n",
        "   midi.NoteOnEvent(tick=96, channel=14, data=[65, 95]),\n",
        "   midi.NoteOnEvent(tick=0, channel=14, data=[69, 84]),\n",
        "   midi.NoteOnEvent(tick=0, channel=14, data=[60, 0]),\n",
        "   midi.NoteOnEvent(tick=0, channel=14, data=[60, 95]),\n",
        "   midi.NoteOnEvent(tick=82, channel=14, data=[64, 0]),\n",
        "   midi.NoteOnEvent(tick=0, channel=14, data=[67, 0]),\n",
        "   midi.NoteOnEvent(tick=0, channel=14, data=[70, 0]),\n",
        "   midi.NoteOnEvent(tick=96, channel=14, data=[65, 0]),\n",
        "   midi.NoteOnEvent(tick=0, channel=14, data=[69, 0]),\n",
        "   midi.NoteOnEvent(tick=0, channel=14, data=[60, 0]),\n",
        "   midi.NoteOnEvent(tick=302, channel=14, data=[65, 69]),\n",
        "   midi.NoteOnEvent(tick=0, channel=14, data=[69, 79]),\n",
        "   midi.NoteOnEvent(tick=0, channel=14, data=[60, 71]),\n",
        "   midi.NoteOnEvent(tick=178, channel=14, data=[65, 0]),\n",
        "   midi.NoteOnEvent(tick=0, channel=14, data=[69, 0]),\n",
        "   midi.NoteOnEvent(tick=0, channel=14, data=[60, 0]),\n",
        "   midi.NoteOnEvent(tick=14, channel=14, data=[65, 76]),\n",
        "   midi.NoteOnEvent(tick=0, channel=14, data=[69, 67]),\n",
        "   midi.NoteOnEvent(tick=0, channel=14, data=[60, 78]),\n",
        "   midi.NoteOnEvent(tick=178, channel=14, data=[65, 0]),\n",
        "   midi.NoteOnEvent(tick=0, channel=14, data=[69, 0]),\n",
        "   midi.NoteOnEvent(tick=0, channel=14, data=[60, 0]),\n",
        "   midi.NoteOnEvent(tick=110, channel=14, data=[67, 79]),\n",
        "   midi.NoteOnEvent(tick=0, channel=14, data=[70, 75]),\n",
        "   midi.NoteOnEvent(tick=0, channel=14, data=[62, 71]),\n",
        "   midi.NoteOnEvent(tick=178, channel=14, data=[67, 0]),\n",
        "   midi.NoteOnEvent(tick=0, channel=14, data=[70, 0]),\n",
        "   midi.NoteOnEvent(tick=0, channel=14, data=[62, 0]),\n",
        "   midi.NoteOnEvent(tick=110, channel=14, data=[67, 79]),\n",
        "   midi.NoteOnEvent(tick=0, channel=14, data=[70, 68]),\n",
        "   midi.NoteOnEvent(tick=0, channel=14, data=[62, 73]),\n",
        "   midi.NoteOnEvent(tick=178, channel=14, data=[67, 0]),\n",
        "   midi.NoteOnEvent(tick=0, channel=14, data=[70, 0]),\n",
        "   midi.NoteOnEvent(tick=0, channel=14, data=[62, 0]),\n",
        "   midi.NoteOnEvent(tick=14, channel=14, data=[67, 72]),\n",
        "   midi.NoteOnEvent(tick=0, channel=14, data=[70, 66]),\n",
        "   midi.NoteOnEvent(tick=0, channel=14, data=[62, 72]),\n",
        "   midi.NoteOnEvent(tick=96, channel=14, data=[65, 94]),\n",
        "   midi.NoteOnEvent(tick=0, channel=14, data=[69, 86]),\n",
        "   midi.NoteOnEvent(tick=0, channel=14, data=[60, 85]),\n",
        "   midi.NoteOnEvent(tick=82, channel=14, data=[67, 0]),\n",
        "   midi.NoteOnEvent(tick=0, channel=14, data=[70, 0]),\n",
        "   midi.NoteOnEvent(tick=0, channel=14, data=[62, 0]),\n",
        "   midi.NoteOnEvent(tick=96, channel=14, data=[65, 0]),\n",
        "   midi.NoteOnEvent(tick=0, channel=14, data=[69, 0]),\n",
        "   midi.NoteOnEvent(tick=0, channel=14, data=[60, 0]),\n",
        "   midi.NoteOnEvent(tick=14, channel=14, data=[65, 73]),\n",
        "   midi.NoteOnEvent(tick=0, channel=14, data=[69, 66]),\n",
        "   midi.NoteOnEvent(tick=0, channel=14, data=[60, 78]),\n",
        "   midi.NoteOnEvent(tick=178, channel=14, data=[65, 0]),\n",
        "   midi.NoteOnEvent(tick=0, channel=14, data=[69, 0]),\n",
        "   midi.NoteOnEvent(tick=0, channel=14, data=[60, 0]),\n",
        "   midi.NoteOnEvent(tick=14, channel=14, data=[65, 74]),\n",
        "   midi.NoteOnEvent(tick=0, channel=14, data=[69, 82]),\n",
        "   midi.NoteOnEvent(tick=0, channel=14, data=[60, 75]),\n",
        "   midi.NoteOnEvent(tick=178, channel=14, data=[65, 0]),\n",
        "   midi.NoteOnEvent(tick=0, channel=14, data=[69, 0]),\n",
        "   midi.NoteOnEvent(tick=0, channel=14, data=[60, 0]),\n",
        "   midi.NoteOnEvent(tick=206, channel=14, data=[60, 86]),\n",
        "   midi.NoteOnEvent(tick=0, channel=14, data=[64, 90]),\n",
        "   midi.NoteOnEvent(tick=0, channel=14, data=[67, 91]),\n",
        "   midi.NoteOnEvent(tick=0, channel=14, data=[70, 92]),\n",
        "   midi.NoteOnEvent(tick=178, channel=14, data=[60, 0]),\n",
        "   midi.NoteOnEvent(tick=0, channel=14, data=[64, 0]),\n",
        "   midi.NoteOnEvent(tick=0, channel=14, data=[67, 0]),\n",
        "   midi.NoteOnEvent(tick=0, channel=14, data=[70, 0]),\n",
        "   midi.NoteOnEvent(tick=14, channel=14, data=[60, 76]),\n",
        "   midi.NoteOnEvent(tick=0, channel=14, data=[64, 71]),\n",
        "   midi.NoteOnEvent(tick=0, channel=14, data=[67, 78]),\n",
        "   midi.NoteOnEvent(tick=0, channel=14, data=[70, 76]),\n",
        "   midi.NoteOnEvent(tick=178, channel=14, data=[60, 0]),\n",
        "   midi.NoteOnEvent(tick=0, channel=14, data=[64, 0]),\n",
        "   midi.NoteOnEvent(tick=0, channel=14, data=[67, 0]),\n",
        "   midi.NoteOnEvent(tick=0, channel=14, data=[70, 0]),\n",
        "   midi.NoteOnEvent(tick=14, channel=14, data=[60, 75]),\n",
        "   midi.NoteOnEvent(tick=0, channel=14, data=[64, 86]),\n",
        "   midi.NoteOnEvent(tick=0, channel=14, data=[67, 79]),\n",
        "   midi.NoteOnEvent(tick=0, channel=14, data=[70, 79]),\n",
        "   midi.NoteOnEvent(tick=178, channel=14, data=[60, 0]),\n",
        "   midi.NoteOnEvent(tick=0, channel=14, data=[64, 0]),\n",
        "   midi.NoteOnEvent(tick=0, channel=14, data=[67, 0]),\n",
        "   midi.NoteOnEvent(tick=0, channel=14, data=[70, 0]),\n",
        "   midi.NoteOnEvent(tick=206, channel=14, data=[65, 91]),\n",
        "   midi.NoteOnEvent(tick=0, channel=14, data=[69, 87]),\n",
        "   midi.NoteOnEvent(tick=0, channel=14, data=[60, 82]),\n",
        "   midi.NoteOnEvent(tick=178, channel=14, data=[65, 0]),\n",
        "   midi.NoteOnEvent(tick=0, channel=14, data=[69, 0]),\n",
        "   midi.NoteOnEvent(tick=0, channel=14, data=[60, 0]),\n",
        "   midi.NoteOnEvent(tick=14, channel=14, data=[65, 79]),\n",
        "   midi.NoteOnEvent(tick=0, channel=14, data=[69, 71]),\n",
        "   midi.NoteOnEvent(tick=0, channel=14, data=[60, 67]),\n",
        "   midi.NoteOnEvent(tick=178, channel=14, data=[65, 0]),\n",
        "   midi.NoteOnEvent(tick=0, channel=14, data=[69, 0]),\n",
        "   midi.NoteOnEvent(tick=0, channel=14, data=[60, 0]),\n",
        "   midi.NoteOnEvent(tick=14, channel=14, data=[65, 80]),\n",
        "   midi.NoteOnEvent(tick=0, channel=14, data=[69, 79]),\n",
        "   midi.NoteOnEvent(tick=0, channel=14, data=[60, 79]),\n",
        "   midi.NoteOnEvent(tick=178, channel=14, data=[65, 0]),\n",
        "   midi.NoteOnEvent(tick=0, channel=14, data=[69, 0]),\n",
        "   midi.NoteOnEvent(tick=0, channel=14, data=[60, 0]),\n",
        "   midi.EndOfTrackEvent(tick=0, data=[])]),\n",
        " midi.Track(\\\n",
        "  [midi.TrackNameEvent(tick=0, text='Bass', data=[66, 97, 115, 115]),\n",
        "   midi.ProgramChangeEvent(tick=0, channel=15, data=[35]),\n",
        "   midi.NoteOnEvent(tick=0, channel=15, data=[41, 81]),\n",
        "   midi.NoteOnEvent(tick=115, channel=15, data=[41, 0]),\n",
        "   midi.NoteOnEvent(tick=177, channel=15, data=[48, 52]),\n",
        "   midi.NoteOnEvent(tick=115, channel=15, data=[48, 0]),\n",
        "   midi.NoteOnEvent(tick=167, channel=15, data=[41, 65]),\n",
        "   midi.NoteOnEvent(tick=115, channel=15, data=[41, 0]),\n",
        "   midi.NoteOnEvent(tick=848, channel=15, data=[36, 94]),\n",
        "   midi.NoteOnEvent(tick=115, channel=15, data=[36, 0]),\n",
        "   midi.NoteOnEvent(tick=169, channel=15, data=[43, 50]),\n",
        "   midi.NoteOnEvent(tick=115, channel=15, data=[43, 0]),\n",
        "   midi.NoteOnEvent(tick=173, channel=15, data=[36, 64]),\n",
        "   midi.NoteOnEvent(tick=115, channel=15, data=[36, 0]),\n",
        "   midi.NoteOnEvent(tick=848, channel=15, data=[41, 93]),\n",
        "   midi.NoteOnEvent(tick=115, channel=15, data=[41, 0]),\n",
        "   midi.NoteOnEvent(tick=172, channel=15, data=[48, 50]),\n",
        "   midi.NoteOnEvent(tick=115, channel=15, data=[48, 0]),\n",
        "   midi.NoteOnEvent(tick=173, channel=15, data=[41, 62]),\n",
        "   midi.NoteOnEvent(tick=115, channel=15, data=[41, 0]),\n",
        "   midi.NoteOnEvent(tick=846, channel=15, data=[36, 97]),\n",
        "   midi.NoteOnEvent(tick=115, channel=15, data=[36, 0]),\n",
        "   midi.NoteOnEvent(tick=174, channel=15, data=[43, 57]),\n",
        "   midi.NoteOnEvent(tick=115, channel=15, data=[43, 0]),\n",
        "   midi.NoteOnEvent(tick=174, channel=15, data=[36, 64]),\n",
        "   midi.NoteOnEvent(tick=115, channel=15, data=[36, 0]),\n",
        "   midi.NoteOnEvent(tick=844, channel=15, data=[31, 85]),\n",
        "   midi.NoteOnEvent(tick=115, channel=15, data=[31, 0]),\n",
        "   midi.NoteOnEvent(tick=171, channel=15, data=[38, 50]),\n",
        "   midi.NoteOnEvent(tick=115, channel=15, data=[38, 0]),\n",
        "   midi.NoteOnEvent(tick=178, channel=15, data=[31, 67]),\n",
        "   midi.NoteOnEvent(tick=115, channel=15, data=[31, 0]),\n",
        "   midi.NoteOnEvent(tick=843, channel=15, data=[36, 93]),\n",
        "   midi.NoteOnEvent(tick=115, channel=15, data=[36, 0]),\n",
        "   midi.NoteOnEvent(tick=171, channel=15, data=[43, 61]),\n",
        "   midi.NoteOnEvent(tick=115, channel=15, data=[43, 0]),\n",
        "   midi.NoteOnEvent(tick=172, channel=15, data=[36, 78]),\n",
        "   midi.NoteOnEvent(tick=115, channel=15, data=[36, 0]),\n",
        "   midi.NoteOnEvent(tick=846, channel=15, data=[31, 80]),\n",
        "   midi.NoteOnEvent(tick=115, channel=15, data=[31, 0]),\n",
        "   midi.NoteOnEvent(tick=171, channel=15, data=[38, 54]),\n",
        "   midi.NoteOnEvent(tick=115, channel=15, data=[38, 0]),\n",
        "   midi.NoteOnEvent(tick=172, channel=15, data=[31, 80]),\n",
        "   midi.NoteOnEvent(tick=115, channel=15, data=[31, 0]),\n",
        "   midi.NoteOnEvent(tick=848, channel=15, data=[36, 85]),\n",
        "   midi.NoteOnEvent(tick=115, channel=15, data=[36, 0]),\n",
        "   midi.NoteOnEvent(tick=173, channel=15, data=[43, 49]),\n",
        "   midi.NoteOnEvent(tick=115, channel=15, data=[43, 0]),\n",
        "   midi.NoteOnEvent(tick=170, channel=15, data=[36, 80]),\n",
        "   midi.NoteOnEvent(tick=115, channel=15, data=[36, 0]),\n",
        "   midi.EndOfTrackEvent(tick=0, data=[])])])"
       ]
      }
     ],
     "prompt_number": 6
    },
    {
     "cell_type": "code",
     "collapsed": false,
     "input": [],
     "language": "python",
     "metadata": {},
     "outputs": []
    },
    {
     "cell_type": "code",
     "collapsed": false,
     "input": [],
     "language": "python",
     "metadata": {},
     "outputs": []
    }
   ],
   "metadata": {}
  }
 ]
}