{
 "metadata": {
  "name": "",
  "signature": "sha256:b98f0b4cb3f79bc0170c077c98887f0729a1b0d1add720ebc23b802f61b17333"
 },
 "nbformat": 3,
 "nbformat_minor": 0,
 "worksheets": [
  {
   "cells": [
    {
     "cell_type": "code",
     "collapsed": false,
     "input": [
      "import midi\n",
      "import random\n",
      "from mididim.pitch import pitch2n"
     ],
     "language": "python",
     "metadata": {},
     "outputs": [],
     "prompt_number": 1
    },
    {
     "cell_type": "code",
     "collapsed": false,
     "input": [
      "filename = \"/Users/szabel/repo/mma/PlectrumExample.mid\"\n",
      "pattern = midi.read_midifile(filename)"
     ],
     "language": "python",
     "metadata": {},
     "outputs": [],
     "prompt_number": 2
    },
    {
     "cell_type": "code",
     "collapsed": false,
     "input": [
      "pattern"
     ],
     "language": "python",
     "metadata": {},
     "outputs": [
      {
       "metadata": {},
       "output_type": "pyout",
       "prompt_number": 3,
       "text": [
        "midi.Pattern(format=1, resolution=192, tracks=\\\n",
        "[midi.Track(\\\n",
        "  [midi.TrackNameEvent(tick=0, text='PlectrumExample', data=[80, 108, 101, 99, 116, 114, 117, 109, 69, 120, 97, 109, 112, 108, 101]),\n",
        "   midi.TextMetaEvent(tick=0, text='Created by MMA. Input filename: PlectrumExample.mma', data=[67, 114, 101, 97, 116, 101, 100, 32, 98, 121, 32, 77, 77, 65, 46, 32, 73, 110, 112, 117, 116, 32, 102, 105, 108, 101, 110, 97, 109, 101, 58, 32, 80, 108, 101, 99, 116, 114, 117, 109, 69, 120, 97, 109, 112, 108, 101, 46, 109, 109, 97]),\n",
        "   midi.TimeSignatureEvent(tick=0, data=[4, 2, 48, 8]),\n",
        "   midi.SetTempoEvent(tick=0, data=[7, 161, 32]),\n",
        "   midi.EndOfTrackEvent(tick=0, data=[])]),\n",
        " midi.Track(\\\n",
        "  [midi.TrackNameEvent(tick=0, text='Plectrum-Singlestrum', data=[80, 108, 101, 99, 116, 114, 117, 109, 45, 83, 105, 110, 103, 108, 101, 115, 116, 114, 117, 109]),\n",
        "   midi.NoteOnEvent(tick=0, channel=14, data=[80, 90]),\n",
        "   midi.NoteOnEvent(tick=1, channel=14, data=[80, 0]),\n",
        "   midi.ProgramChangeEvent(tick=21503, channel=14, data=[24]),\n",
        "   midi.NoteOnEvent(tick=0, channel=14, data=[43, 80]),\n",
        "   midi.NoteOnEvent(tick=30, channel=14, data=[47, 70]),\n",
        "   midi.NoteOnEvent(tick=30, channel=14, data=[50, 60]),\n",
        "   midi.NoteOnEvent(tick=30, channel=14, data=[55, 40]),\n",
        "   midi.NoteOnEvent(tick=30, channel=14, data=[59, 30]),\n",
        "   midi.NoteOnEvent(tick=264, channel=14, data=[43, 0]),\n",
        "   midi.NoteOnEvent(tick=0, channel=14, data=[47, 0]),\n",
        "   midi.NoteOnEvent(tick=0, channel=14, data=[50, 0]),\n",
        "   midi.NoteOnEvent(tick=0, channel=14, data=[55, 0]),\n",
        "   midi.NoteOnEvent(tick=0, channel=14, data=[59, 0]),\n",
        "   midi.ControlChangeEvent(tick=384, channel=14, data=[123, 0]),\n",
        "   midi.EndOfTrackEvent(tick=0, data=[])]),\n",
        " midi.Track(\\\n",
        "  [midi.TrackNameEvent(tick=0, text='Plectrum-Fingerpicking', data=[80, 108, 101, 99, 116, 114, 117, 109, 45, 70, 105, 110, 103, 101, 114, 112, 105, 99, 107, 105, 110, 103]),\n",
        "   midi.ProgramChangeEvent(tick=0, channel=15, data=[24]),\n",
        "   midi.NoteOnEvent(tick=0, channel=15, data=[47, 100]),\n",
        "   midi.NoteOnEvent(tick=0, channel=15, data=[59, 80]),\n",
        "   midi.NoteOnEvent(tick=0, channel=15, data=[80, 90]),\n",
        "   midi.NoteOnEvent(tick=1, channel=15, data=[80, 0]),\n",
        "   midi.NoteOnEvent(tick=95, channel=15, data=[55, 80]),\n",
        "   midi.NoteOnEvent(tick=96, channel=15, data=[50, 90]),\n",
        "   midi.NoteOnEvent(tick=0, channel=15, data=[59, 0]),\n",
        "   midi.NoteOnEvent(tick=0, channel=15, data=[59, 80]),\n",
        "   midi.NoteOnEvent(tick=96, channel=15, data=[55, 0]),\n",
        "   midi.NoteOnEvent(tick=0, channel=15, data=[55, 80]),\n",
        "   midi.NoteOnEvent(tick=96, channel=15, data=[67, 80]),\n",
        "   midi.NoteOnEvent(tick=96, channel=15, data=[59, 0]),\n",
        "   midi.NoteOnEvent(tick=0, channel=15, data=[59, 80]),\n",
        "   midi.NoteOnEvent(tick=96, channel=15, data=[55, 0]),\n",
        "   midi.NoteOnEvent(tick=0, channel=15, data=[55, 80]),\n",
        "   midi.NoteOnEvent(tick=96, channel=15, data=[50, 0]),\n",
        "   midi.NoteOnEvent(tick=0, channel=15, data=[50, 80]),\n",
        "   midi.NoteOnEvent(tick=96, channel=15, data=[47, 0]),\n",
        "   midi.NoteOnEvent(tick=0, channel=15, data=[47, 100]),\n",
        "   midi.NoteOnEvent(tick=0, channel=15, data=[59, 0]),\n",
        "   midi.NoteOnEvent(tick=0, channel=15, data=[59, 80]),\n",
        "   midi.NoteOnEvent(tick=96, channel=15, data=[55, 0]),\n",
        "   midi.NoteOnEvent(tick=0, channel=15, data=[55, 80]),\n",
        "   midi.NoteOnEvent(tick=96, channel=15, data=[50, 0]),\n",
        "   midi.NoteOnEvent(tick=0, channel=15, data=[50, 90]),\n",
        "   midi.NoteOnEvent(tick=0, channel=15, data=[59, 0]),\n",
        "   midi.NoteOnEvent(tick=0, channel=15, data=[59, 80]),\n",
        "   midi.NoteOnEvent(tick=96, channel=15, data=[55, 0]),\n",
        "   midi.NoteOnEvent(tick=0, channel=15, data=[55, 80]),\n",
        "   midi.NoteOnEvent(tick=96, channel=15, data=[67, 0]),\n",
        "   midi.NoteOnEvent(tick=0, channel=15, data=[67, 80]),\n",
        "   midi.NoteOnEvent(tick=96, channel=15, data=[59, 0]),\n",
        "   midi.NoteOnEvent(tick=0, channel=15, data=[59, 80]),\n",
        "   midi.NoteOnEvent(tick=96, channel=15, data=[55, 0]),\n",
        "   midi.NoteOnEvent(tick=0, channel=15, data=[55, 80]),\n",
        "   midi.NoteOnEvent(tick=96, channel=15, data=[50, 0]),\n",
        "   midi.NoteOnEvent(tick=0, channel=15, data=[50, 80]),\n",
        "   midi.NoteOnEvent(tick=96, channel=15, data=[47, 0]),\n",
        "   midi.NoteOnEvent(tick=0, channel=15, data=[45, 100]),\n",
        "   midi.NoteOnEvent(tick=0, channel=15, data=[55, 0]),\n",
        "   midi.NoteOnEvent(tick=0, channel=15, data=[59, 0]),\n",
        "   midi.NoteOnEvent(tick=0, channel=15, data=[62, 80]),\n",
        "   midi.NoteOnEvent(tick=0, channel=15, data=[67, 0]),\n",
        "   midi.NoteOnEvent(tick=96, channel=15, data=[57, 80]),\n",
        "   midi.NoteOnEvent(tick=96, channel=15, data=[50, 0]),\n",
        "   midi.NoteOnEvent(tick=0, channel=15, data=[50, 90]),\n",
        "   midi.NoteOnEvent(tick=0, channel=15, data=[62, 0]),\n",
        "   midi.NoteOnEvent(tick=0, channel=15, data=[62, 80]),\n",
        "   midi.NoteOnEvent(tick=96, channel=15, data=[57, 0]),\n",
        "   midi.NoteOnEvent(tick=0, channel=15, data=[57, 80]),\n",
        "   midi.NoteOnEvent(tick=96, channel=15, data=[66, 80]),\n",
        "   midi.NoteOnEvent(tick=96, channel=15, data=[62, 0]),\n",
        "   midi.NoteOnEvent(tick=0, channel=15, data=[62, 80]),\n",
        "   midi.NoteOnEvent(tick=96, channel=15, data=[57, 0]),\n",
        "   midi.NoteOnEvent(tick=0, channel=15, data=[57, 80]),\n",
        "   midi.NoteOnEvent(tick=96, channel=15, data=[50, 0]),\n",
        "   midi.NoteOnEvent(tick=0, channel=15, data=[50, 80]),\n",
        "   midi.NoteOnEvent(tick=96, channel=15, data=[45, 0]),\n",
        "   midi.NoteOnEvent(tick=0, channel=15, data=[48, 100]),\n",
        "   midi.NoteOnEvent(tick=0, channel=15, data=[50, 0]),\n",
        "   midi.NoteOnEvent(tick=0, channel=15, data=[57, 0]),\n",
        "   midi.NoteOnEvent(tick=0, channel=15, data=[62, 0]),\n",
        "   midi.NoteOnEvent(tick=0, channel=15, data=[60, 80]),\n",
        "   midi.NoteOnEvent(tick=0, channel=15, data=[66, 0]),\n",
        "   midi.NoteOnEvent(tick=96, channel=15, data=[55, 80]),\n",
        "   midi.NoteOnEvent(tick=96, channel=15, data=[52, 90]),\n",
        "   midi.NoteOnEvent(tick=0, channel=15, data=[60, 0]),\n",
        "   midi.NoteOnEvent(tick=0, channel=15, data=[60, 80]),\n",
        "   midi.NoteOnEvent(tick=96, channel=15, data=[55, 0]),\n",
        "   midi.NoteOnEvent(tick=0, channel=15, data=[55, 80]),\n",
        "   midi.NoteOnEvent(tick=96, channel=15, data=[64, 80]),\n",
        "   midi.NoteOnEvent(tick=96, channel=15, data=[60, 0]),\n",
        "   midi.NoteOnEvent(tick=0, channel=15, data=[60, 80]),\n",
        "   midi.NoteOnEvent(tick=96, channel=15, data=[55, 0]),\n",
        "   midi.NoteOnEvent(tick=0, channel=15, data=[55, 80]),\n",
        "   midi.NoteOnEvent(tick=96, channel=15, data=[52, 0]),\n",
        "   midi.NoteOnEvent(tick=0, channel=15, data=[52, 80]),\n",
        "   midi.NoteOnEvent(tick=96, channel=15, data=[48, 0]),\n",
        "   midi.NoteOnEvent(tick=0, channel=15, data=[55, 100]),\n",
        "   midi.NoteOnEvent(tick=0, channel=15, data=[52, 0]),\n",
        "   midi.NoteOnEvent(tick=0, channel=15, data=[55, 0]),\n",
        "   midi.NoteOnEvent(tick=0, channel=15, data=[60, 0]),\n",
        "   midi.NoteOnEvent(tick=0, channel=15, data=[71, 80]),\n",
        "   midi.NoteOnEvent(tick=0, channel=15, data=[64, 0]),\n",
        "   midi.NoteOnEvent(tick=96, channel=15, data=[67, 80]),\n",
        "   midi.NoteOnEvent(tick=96, channel=15, data=[59, 90]),\n",
        "   midi.NoteOnEvent(tick=0, channel=15, data=[71, 0]),\n",
        "   midi.NoteOnEvent(tick=0, channel=15, data=[71, 80]),\n",
        "   midi.NoteOnEvent(tick=96, channel=15, data=[67, 0]),\n",
        "   midi.NoteOnEvent(tick=0, channel=15, data=[67, 80]),\n",
        "   midi.NoteOnEvent(tick=96, channel=15, data=[74, 80]),\n",
        "   midi.NoteOnEvent(tick=96, channel=15, data=[71, 0]),\n",
        "   midi.NoteOnEvent(tick=0, channel=15, data=[71, 80]),\n",
        "   midi.NoteOnEvent(tick=96, channel=15, data=[67, 0]),\n",
        "   midi.NoteOnEvent(tick=0, channel=15, data=[67, 80]),\n",
        "   midi.NoteOnEvent(tick=96, channel=15, data=[59, 0]),\n",
        "   midi.NoteOnEvent(tick=0, channel=15, data=[59, 80]),\n",
        "   midi.NoteOnEvent(tick=96, channel=15, data=[55, 0]),\n",
        "   midi.NoteOnEvent(tick=0, channel=15, data=[55, 100]),\n",
        "   midi.NoteOnEvent(tick=0, channel=15, data=[71, 0]),\n",
        "   midi.NoteOnEvent(tick=0, channel=15, data=[71, 80]),\n",
        "   midi.NoteOnEvent(tick=96, channel=15, data=[67, 0]),\n",
        "   midi.NoteOnEvent(tick=0, channel=15, data=[67, 80]),\n",
        "   midi.NoteOnEvent(tick=96, channel=15, data=[59, 0]),\n",
        "   midi.NoteOnEvent(tick=0, channel=15, data=[59, 90]),\n",
        "   midi.NoteOnEvent(tick=0, channel=15, data=[71, 0]),\n",
        "   midi.NoteOnEvent(tick=0, channel=15, data=[71, 80]),\n",
        "   midi.NoteOnEvent(tick=96, channel=15, data=[67, 0]),\n",
        "   midi.NoteOnEvent(tick=0, channel=15, data=[67, 80]),\n",
        "   midi.NoteOnEvent(tick=96, channel=15, data=[74, 0]),\n",
        "   midi.NoteOnEvent(tick=0, channel=15, data=[74, 80]),\n",
        "   midi.NoteOnEvent(tick=96, channel=15, data=[71, 0]),\n",
        "   midi.NoteOnEvent(tick=0, channel=15, data=[71, 80]),\n",
        "   midi.NoteOnEvent(tick=96, channel=15, data=[67, 0]),\n",
        "   midi.NoteOnEvent(tick=0, channel=15, data=[67, 80]),\n",
        "   midi.NoteOnEvent(tick=96, channel=15, data=[59, 0]),\n",
        "   midi.NoteOnEvent(tick=0, channel=15, data=[59, 80]),\n",
        "   midi.NoteOnEvent(tick=96, channel=15, data=[55, 0]),\n",
        "   midi.NoteOnEvent(tick=0, channel=15, data=[54, 100]),\n",
        "   midi.NoteOnEvent(tick=0, channel=15, data=[59, 0]),\n",
        "   midi.NoteOnEvent(tick=0, channel=15, data=[67, 0]),\n",
        "   midi.NoteOnEvent(tick=0, channel=15, data=[71, 0]),\n",
        "   midi.NoteOnEvent(tick=0, channel=15, data=[69, 80]),\n",
        "   midi.NoteOnEvent(tick=96, channel=15, data=[66, 80]),\n",
        "   midi.NoteOnEvent(tick=96, channel=15, data=[62, 90]),\n",
        "   midi.NoteOnEvent(tick=0, channel=15, data=[69, 0]),\n",
        "   midi.NoteOnEvent(tick=0, channel=15, data=[69, 80]),\n",
        "   midi.NoteOnEvent(tick=96, channel=15, data=[66, 0]),\n",
        "   midi.NoteOnEvent(tick=0, channel=15, data=[66, 80]),\n",
        "   midi.NoteOnEvent(tick=96, channel=15, data=[74, 0]),\n",
        "   midi.NoteOnEvent(tick=0, channel=15, data=[74, 80]),\n",
        "   midi.NoteOnEvent(tick=96, channel=15, data=[69, 0]),\n",
        "   midi.NoteOnEvent(tick=0, channel=15, data=[69, 80]),\n",
        "   midi.NoteOnEvent(tick=96, channel=15, data=[66, 0]),\n",
        "   midi.NoteOnEvent(tick=0, channel=15, data=[66, 80]),\n",
        "   midi.NoteOnEvent(tick=96, channel=15, data=[62, 0]),\n",
        "   midi.NoteOnEvent(tick=0, channel=15, data=[62, 80]),\n",
        "   midi.NoteOnEvent(tick=96, channel=15, data=[54, 0]),\n",
        "   midi.NoteOnEvent(tick=0, channel=15, data=[55, 100]),\n",
        "   midi.NoteOnEvent(tick=0, channel=15, data=[62, 0]),\n",
        "   midi.NoteOnEvent(tick=0, channel=15, data=[66, 0]),\n",
        "   midi.NoteOnEvent(tick=0, channel=15, data=[69, 0]),\n",
        "   midi.NoteOnEvent(tick=0, channel=15, data=[67, 80]),\n",
        "   midi.NoteOnEvent(tick=0, channel=15, data=[74, 0]),\n",
        "   midi.NoteOnEvent(tick=96, channel=15, data=[64, 80]),\n",
        "   midi.NoteOnEvent(tick=96, channel=15, data=[60, 90]),\n",
        "   midi.NoteOnEvent(tick=0, channel=15, data=[67, 0]),\n",
        "   midi.NoteOnEvent(tick=0, channel=15, data=[67, 80]),\n",
        "   midi.NoteOnEvent(tick=96, channel=15, data=[64, 0]),\n",
        "   midi.NoteOnEvent(tick=0, channel=15, data=[64, 80]),\n",
        "   midi.NoteOnEvent(tick=96, channel=15, data=[72, 80]),\n",
        "   midi.NoteOnEvent(tick=96, channel=15, data=[67, 0]),\n",
        "   midi.NoteOnEvent(tick=0, channel=15, data=[67, 80]),\n",
        "   midi.NoteOnEvent(tick=96, channel=15, data=[64, 0]),\n",
        "   midi.NoteOnEvent(tick=0, channel=15, data=[64, 80]),\n",
        "   midi.NoteOnEvent(tick=96, channel=15, data=[60, 0]),\n",
        "   midi.NoteOnEvent(tick=0, channel=15, data=[60, 80]),\n",
        "   midi.NoteOnEvent(tick=96, channel=15, data=[55, 0]),\n",
        "   midi.NoteOnEvent(tick=0, channel=15, data=[60, 0]),\n",
        "   midi.NoteOnEvent(tick=0, channel=15, data=[64, 0]),\n",
        "   midi.NoteOnEvent(tick=0, channel=15, data=[67, 0]),\n",
        "   midi.NoteOnEvent(tick=0, channel=15, data=[72, 0]),\n",
        "   midi.NoteOnEvent(tick=0, channel=15, data=[47, 100]),\n",
        "   midi.NoteOnEvent(tick=0, channel=15, data=[59, 80]),\n",
        "   midi.NoteOnEvent(tick=96, channel=15, data=[55, 80]),\n",
        "   midi.NoteOnEvent(tick=96, channel=15, data=[50, 90]),\n",
        "   midi.NoteOnEvent(tick=0, channel=15, data=[59, 0]),\n",
        "   midi.NoteOnEvent(tick=0, channel=15, data=[59, 80]),\n",
        "   midi.NoteOnEvent(tick=96, channel=15, data=[55, 0]),\n",
        "   midi.NoteOnEvent(tick=0, channel=15, data=[55, 80]),\n",
        "   midi.NoteOnEvent(tick=96, channel=15, data=[59, 0]),\n",
        "   midi.NoteOnEvent(tick=0, channel=15, data=[59, 80]),\n",
        "   midi.NoteOnEvent(tick=0, channel=15, data=[67, 80]),\n",
        "   midi.NoteOnEvent(tick=96, channel=15, data=[59, 0]),\n",
        "   midi.NoteOnEvent(tick=0, channel=15, data=[59, 80]),\n",
        "   midi.NoteOnEvent(tick=96, channel=15, data=[55, 0]),\n",
        "   midi.NoteOnEvent(tick=0, channel=15, data=[55, 80]),\n",
        "   midi.NoteOnEvent(tick=0, channel=15, data=[59, 0]),\n",
        "   midi.NoteOnEvent(tick=0, channel=15, data=[59, 80]),\n",
        "   midi.NoteOnEvent(tick=96, channel=15, data=[50, 0]),\n",
        "   midi.NoteOnEvent(tick=0, channel=15, data=[50, 80]),\n",
        "   midi.NoteOnEvent(tick=96, channel=15, data=[47, 0]),\n",
        "   midi.NoteOnEvent(tick=0, channel=15, data=[47, 100]),\n",
        "   midi.NoteOnEvent(tick=0, channel=15, data=[59, 0]),\n",
        "   midi.NoteOnEvent(tick=0, channel=15, data=[59, 80]),\n",
        "   midi.NoteOnEvent(tick=96, channel=15, data=[55, 0]),\n",
        "   midi.NoteOnEvent(tick=0, channel=15, data=[55, 80]),\n",
        "   midi.NoteOnEvent(tick=96, channel=15, data=[50, 0]),\n",
        "   midi.NoteOnEvent(tick=0, channel=15, data=[50, 90]),\n",
        "   midi.NoteOnEvent(tick=0, channel=15, data=[59, 0]),\n",
        "   midi.NoteOnEvent(tick=0, channel=15, data=[59, 80]),\n",
        "   midi.NoteOnEvent(tick=96, channel=15, data=[55, 0]),\n",
        "   midi.NoteOnEvent(tick=0, channel=15, data=[55, 80]),\n",
        "   midi.NoteOnEvent(tick=96, channel=15, data=[59, 0]),\n",
        "   midi.NoteOnEvent(tick=0, channel=15, data=[59, 80]),\n",
        "   midi.NoteOnEvent(tick=0, channel=15, data=[67, 0]),\n",
        "   midi.NoteOnEvent(tick=0, channel=15, data=[67, 80]),\n",
        "   midi.NoteOnEvent(tick=96, channel=15, data=[59, 0]),\n",
        "   midi.NoteOnEvent(tick=0, channel=15, data=[59, 80]),\n",
        "   midi.NoteOnEvent(tick=96, channel=15, data=[55, 0]),\n",
        "   midi.NoteOnEvent(tick=0, channel=15, data=[55, 80]),\n",
        "   midi.NoteOnEvent(tick=0, channel=15, data=[59, 0]),\n",
        "   midi.NoteOnEvent(tick=0, channel=15, data=[59, 80]),\n",
        "   midi.NoteOnEvent(tick=96, channel=15, data=[50, 0]),\n",
        "   midi.NoteOnEvent(tick=0, channel=15, data=[50, 80]),\n",
        "   midi.NoteOnEvent(tick=96, channel=15, data=[47, 0]),\n",
        "   midi.NoteOnEvent(tick=0, channel=15, data=[45, 100]),\n",
        "   midi.NoteOnEvent(tick=0, channel=15, data=[55, 0]),\n",
        "   midi.NoteOnEvent(tick=0, channel=15, data=[59, 0]),\n",
        "   midi.NoteOnEvent(tick=0, channel=15, data=[62, 80]),\n",
        "   midi.NoteOnEvent(tick=0, channel=15, data=[67, 0]),\n",
        "   midi.NoteOnEvent(tick=96, channel=15, data=[57, 80]),\n",
        "   midi.NoteOnEvent(tick=96, channel=15, data=[50, 0]),\n",
        "   midi.NoteOnEvent(tick=0, channel=15, data=[50, 90]),\n",
        "   midi.NoteOnEvent(tick=0, channel=15, data=[62, 0]),\n",
        "   midi.NoteOnEvent(tick=0, channel=15, data=[62, 80]),\n",
        "   midi.NoteOnEvent(tick=96, channel=15, data=[57, 0]),\n",
        "   midi.NoteOnEvent(tick=0, channel=15, data=[57, 80]),\n",
        "   midi.NoteOnEvent(tick=96, channel=15, data=[62, 0]),\n",
        "   midi.NoteOnEvent(tick=0, channel=15, data=[62, 80]),\n",
        "   midi.NoteOnEvent(tick=0, channel=15, data=[66, 80]),\n",
        "   midi.NoteOnEvent(tick=96, channel=15, data=[62, 0]),\n",
        "   midi.NoteOnEvent(tick=0, channel=15, data=[62, 80]),\n",
        "   midi.NoteOnEvent(tick=96, channel=15, data=[57, 0]),\n",
        "   midi.NoteOnEvent(tick=0, channel=15, data=[57, 80]),\n",
        "   midi.NoteOnEvent(tick=0, channel=15, data=[62, 0]),\n",
        "   midi.NoteOnEvent(tick=0, channel=15, data=[62, 80]),\n",
        "   midi.NoteOnEvent(tick=96, channel=15, data=[50, 0]),\n",
        "   midi.NoteOnEvent(tick=0, channel=15, data=[50, 80]),\n",
        "   midi.NoteOnEvent(tick=96, channel=15, data=[45, 0]),\n",
        "   midi.NoteOnEvent(tick=0, channel=15, data=[48, 100]),\n",
        "   midi.NoteOnEvent(tick=0, channel=15, data=[50, 0]),\n",
        "   midi.NoteOnEvent(tick=0, channel=15, data=[57, 0]),\n",
        "   midi.NoteOnEvent(tick=0, channel=15, data=[62, 0]),\n",
        "   midi.NoteOnEvent(tick=0, channel=15, data=[60, 80]),\n",
        "   midi.NoteOnEvent(tick=0, channel=15, data=[66, 0]),\n",
        "   midi.NoteOnEvent(tick=96, channel=15, data=[55, 80]),\n",
        "   midi.NoteOnEvent(tick=96, channel=15, data=[52, 90]),\n",
        "   midi.NoteOnEvent(tick=0, channel=15, data=[60, 0]),\n",
        "   midi.NoteOnEvent(tick=0, channel=15, data=[60, 80]),\n",
        "   midi.NoteOnEvent(tick=96, channel=15, data=[55, 0]),\n",
        "   midi.NoteOnEvent(tick=0, channel=15, data=[55, 80]),\n",
        "   midi.NoteOnEvent(tick=96, channel=15, data=[60, 0]),\n",
        "   midi.NoteOnEvent(tick=0, channel=15, data=[60, 80]),\n",
        "   midi.NoteOnEvent(tick=0, channel=15, data=[64, 80]),\n",
        "   midi.NoteOnEvent(tick=96, channel=15, data=[60, 0]),\n",
        "   midi.NoteOnEvent(tick=0, channel=15, data=[60, 80]),\n",
        "   midi.NoteOnEvent(tick=96, channel=15, data=[55, 0]),\n",
        "   midi.NoteOnEvent(tick=0, channel=15, data=[55, 80]),\n",
        "   midi.NoteOnEvent(tick=0, channel=15, data=[60, 0]),\n",
        "   midi.NoteOnEvent(tick=0, channel=15, data=[60, 80]),\n",
        "   midi.NoteOnEvent(tick=96, channel=15, data=[52, 0]),\n",
        "   midi.NoteOnEvent(tick=0, channel=15, data=[52, 80]),\n",
        "   midi.NoteOnEvent(tick=96, channel=15, data=[48, 0]),\n",
        "   midi.NoteOnEvent(tick=0, channel=15, data=[55, 100]),\n",
        "   midi.NoteOnEvent(tick=0, channel=15, data=[52, 0]),\n",
        "   midi.NoteOnEvent(tick=0, channel=15, data=[55, 0]),\n",
        "   midi.NoteOnEvent(tick=0, channel=15, data=[60, 0]),\n",
        "   midi.NoteOnEvent(tick=0, channel=15, data=[71, 80]),\n",
        "   midi.NoteOnEvent(tick=0, channel=15, data=[64, 0]),\n",
        "   midi.NoteOnEvent(tick=96, channel=15, data=[67, 80]),\n",
        "   midi.NoteOnEvent(tick=96, channel=15, data=[62, 90]),\n",
        "   midi.NoteOnEvent(tick=0, channel=15, data=[71, 0]),\n",
        "   midi.NoteOnEvent(tick=0, channel=15, data=[71, 80]),\n",
        "   midi.NoteOnEvent(tick=96, channel=15, data=[67, 0]),\n",
        "   midi.NoteOnEvent(tick=0, channel=15, data=[67, 80]),\n",
        "   midi.NoteOnEvent(tick=96, channel=15, data=[71, 0]),\n",
        "   midi.NoteOnEvent(tick=0, channel=15, data=[71, 80]),\n",
        "   midi.NoteOnEvent(tick=0, channel=15, data=[74, 80]),\n",
        "   midi.NoteOnEvent(tick=96, channel=15, data=[71, 0]),\n",
        "   midi.NoteOnEvent(tick=0, channel=15, data=[71, 80]),\n",
        "   midi.NoteOnEvent(tick=96, channel=15, data=[67, 0]),\n",
        "   midi.NoteOnEvent(tick=0, channel=15, data=[67, 80]),\n",
        "   midi.NoteOnEvent(tick=0, channel=15, data=[71, 0]),\n",
        "   midi.NoteOnEvent(tick=0, channel=15, data=[71, 80]),\n",
        "   midi.NoteOnEvent(tick=96, channel=15, data=[62, 0]),\n",
        "   midi.NoteOnEvent(tick=0, channel=15, data=[62, 80]),\n",
        "   midi.NoteOnEvent(tick=96, channel=15, data=[55, 0]),\n",
        "   midi.NoteOnEvent(tick=0, channel=15, data=[55, 100]),\n",
        "   midi.NoteOnEvent(tick=0, channel=15, data=[71, 0]),\n",
        "   midi.NoteOnEvent(tick=0, channel=15, data=[71, 80]),\n",
        "   midi.NoteOnEvent(tick=96, channel=15, data=[67, 0]),\n",
        "   midi.NoteOnEvent(tick=0, channel=15, data=[67, 80]),\n",
        "   midi.NoteOnEvent(tick=96, channel=15, data=[62, 0]),\n",
        "   midi.NoteOnEvent(tick=0, channel=15, data=[62, 90]),\n",
        "   midi.NoteOnEvent(tick=0, channel=15, data=[71, 0]),\n",
        "   midi.NoteOnEvent(tick=0, channel=15, data=[71, 80]),\n",
        "   midi.NoteOnEvent(tick=96, channel=15, data=[67, 0]),\n",
        "   midi.NoteOnEvent(tick=0, channel=15, data=[67, 80]),\n",
        "   midi.NoteOnEvent(tick=96, channel=15, data=[71, 0]),\n",
        "   midi.NoteOnEvent(tick=0, channel=15, data=[71, 80]),\n",
        "   midi.NoteOnEvent(tick=0, channel=15, data=[74, 0]),\n",
        "   midi.NoteOnEvent(tick=0, channel=15, data=[74, 80]),\n",
        "   midi.NoteOnEvent(tick=96, channel=15, data=[71, 0]),\n",
        "   midi.NoteOnEvent(tick=0, channel=15, data=[71, 80]),\n",
        "   midi.NoteOnEvent(tick=96, channel=15, data=[67, 0]),\n",
        "   midi.NoteOnEvent(tick=0, channel=15, data=[67, 80]),\n",
        "   midi.NoteOnEvent(tick=0, channel=15, data=[71, 0]),\n",
        "   midi.NoteOnEvent(tick=0, channel=15, data=[71, 80]),\n",
        "   midi.NoteOnEvent(tick=96, channel=15, data=[62, 0]),\n",
        "   midi.NoteOnEvent(tick=0, channel=15, data=[62, 80]),\n",
        "   midi.NoteOnEvent(tick=96, channel=15, data=[55, 0]),\n",
        "   midi.NoteOnEvent(tick=0, channel=15, data=[57, 100]),\n",
        "   midi.NoteOnEvent(tick=0, channel=15, data=[67, 0]),\n",
        "   midi.NoteOnEvent(tick=0, channel=15, data=[71, 0]),\n",
        "   midi.NoteOnEvent(tick=0, channel=15, data=[69, 80]),\n",
        "   midi.NoteOnEvent(tick=96, channel=15, data=[66, 80]),\n",
        "   midi.NoteOnEvent(tick=96, channel=15, data=[62, 0]),\n",
        "   midi.NoteOnEvent(tick=0, channel=15, data=[62, 90]),\n",
        "   midi.NoteOnEvent(tick=0, channel=15, data=[69, 0]),\n",
        "   midi.NoteOnEvent(tick=0, channel=15, data=[69, 80]),\n",
        "   midi.NoteOnEvent(tick=96, channel=15, data=[66, 0]),\n",
        "   midi.NoteOnEvent(tick=0, channel=15, data=[66, 80]),\n",
        "   midi.NoteOnEvent(tick=96, channel=15, data=[69, 0]),\n",
        "   midi.NoteOnEvent(tick=0, channel=15, data=[69, 80]),\n",
        "   midi.NoteOnEvent(tick=0, channel=15, data=[74, 0]),\n",
        "   midi.NoteOnEvent(tick=0, channel=15, data=[74, 80]),\n",
        "   midi.NoteOnEvent(tick=96, channel=15, data=[69, 0]),\n",
        "   midi.NoteOnEvent(tick=0, channel=15, data=[69, 80]),\n",
        "   midi.NoteOnEvent(tick=96, channel=15, data=[66, 0]),\n",
        "   midi.NoteOnEvent(tick=0, channel=15, data=[66, 80]),\n",
        "   midi.NoteOnEvent(tick=0, channel=15, data=[69, 0]),\n",
        "   midi.NoteOnEvent(tick=0, channel=15, data=[69, 80]),\n",
        "   midi.NoteOnEvent(tick=96, channel=15, data=[62, 0]),\n",
        "   midi.NoteOnEvent(tick=0, channel=15, data=[62, 80]),\n",
        "   midi.NoteOnEvent(tick=96, channel=15, data=[57, 0]),\n",
        "   midi.NoteOnEvent(tick=0, channel=15, data=[55, 100]),\n",
        "   midi.NoteOnEvent(tick=0, channel=15, data=[62, 0]),\n",
        "   midi.NoteOnEvent(tick=0, channel=15, data=[66, 0]),\n",
        "   midi.NoteOnEvent(tick=0, channel=15, data=[69, 0]),\n",
        "   midi.NoteOnEvent(tick=0, channel=15, data=[72, 80]),\n",
        "   midi.NoteOnEvent(tick=0, channel=15, data=[74, 0]),\n",
        "   midi.NoteOnEvent(tick=96, channel=15, data=[67, 80]),\n",
        "   midi.NoteOnEvent(tick=96, channel=15, data=[60, 90]),\n",
        "   midi.NoteOnEvent(tick=0, channel=15, data=[72, 0]),\n",
        "   midi.NoteOnEvent(tick=0, channel=15, data=[72, 80]),\n",
        "   midi.NoteOnEvent(tick=96, channel=15, data=[67, 0]),\n",
        "   midi.NoteOnEvent(tick=0, channel=15, data=[67, 80]),\n",
        "   midi.NoteOnEvent(tick=96, channel=15, data=[72, 0]),\n",
        "   midi.NoteOnEvent(tick=0, channel=15, data=[72, 80]),\n",
        "   midi.NoteOnEvent(tick=0, channel=15, data=[76, 80]),\n",
        "   midi.NoteOnEvent(tick=96, channel=15, data=[72, 0]),\n",
        "   midi.NoteOnEvent(tick=0, channel=15, data=[72, 80]),\n",
        "   midi.NoteOnEvent(tick=96, channel=15, data=[67, 0]),\n",
        "   midi.NoteOnEvent(tick=0, channel=15, data=[67, 80]),\n",
        "   midi.NoteOnEvent(tick=0, channel=15, data=[72, 0]),\n",
        "   midi.NoteOnEvent(tick=0, channel=15, data=[72, 80]),\n",
        "   midi.NoteOnEvent(tick=96, channel=15, data=[60, 0]),\n",
        "   midi.NoteOnEvent(tick=0, channel=15, data=[60, 80]),\n",
        "   midi.NoteOnEvent(tick=96, channel=15, data=[55, 0]),\n",
        "   midi.NoteOnEvent(tick=0, channel=15, data=[60, 0]),\n",
        "   midi.NoteOnEvent(tick=0, channel=15, data=[67, 0]),\n",
        "   midi.NoteOnEvent(tick=0, channel=15, data=[72, 0]),\n",
        "   midi.NoteOnEvent(tick=0, channel=15, data=[76, 0]),\n",
        "   midi.NoteOnEvent(tick=0, channel=15, data=[50, 60]),\n",
        "   midi.NoteOnEvent(tick=0, channel=15, data=[59, 80]),\n",
        "   midi.NoteOnEvent(tick=96, channel=15, data=[55, 80]),\n",
        "   midi.NoteOnEvent(tick=96, channel=15, data=[47, 90]),\n",
        "   midi.NoteOnEvent(tick=0, channel=15, data=[59, 0]),\n",
        "   midi.NoteOnEvent(tick=0, channel=15, data=[59, 80]),\n",
        "   midi.NoteOnEvent(tick=96, channel=15, data=[50, 0]),\n",
        "   midi.NoteOnEvent(tick=0, channel=15, data=[50, 80]),\n",
        "   midi.NoteOnEvent(tick=96, channel=15, data=[55, 0]),\n",
        "   midi.NoteOnEvent(tick=0, channel=15, data=[55, 80]),\n",
        "   midi.NoteOnEvent(tick=96, channel=15, data=[59, 0]),\n",
        "   midi.NoteOnEvent(tick=0, channel=15, data=[59, 80]),\n",
        "   midi.NoteOnEvent(tick=96, channel=15, data=[67, 80]),\n",
        "   midi.NoteOnEvent(tick=96, channel=15, data=[50, 0]),\n",
        "   midi.NoteOnEvent(tick=0, channel=15, data=[50, 80]),\n",
        "   midi.NoteOnEvent(tick=0, channel=15, data=[55, 0]),\n",
        "   midi.NoteOnEvent(tick=0, channel=15, data=[55, 60]),\n",
        "   midi.NoteOnEvent(tick=96, channel=15, data=[50, 0]),\n",
        "   midi.NoteOnEvent(tick=0, channel=15, data=[50, 60]),\n",
        "   midi.NoteOnEvent(tick=0, channel=15, data=[59, 0]),\n",
        "   midi.NoteOnEvent(tick=0, channel=15, data=[59, 80]),\n",
        "   midi.NoteOnEvent(tick=96, channel=15, data=[55, 0]),\n",
        "   midi.NoteOnEvent(tick=0, channel=15, data=[55, 80]),\n",
        "   midi.NoteOnEvent(tick=96, channel=15, data=[47, 0]),\n",
        "   midi.NoteOnEvent(tick=0, channel=15, data=[47, 90]),\n",
        "   midi.NoteOnEvent(tick=0, channel=15, data=[59, 0]),\n",
        "   midi.NoteOnEvent(tick=0, channel=15, data=[59, 80]),\n",
        "   midi.NoteOnEvent(tick=96, channel=15, data=[50, 0]),\n",
        "   midi.NoteOnEvent(tick=0, channel=15, data=[50, 80]),\n",
        "   midi.NoteOnEvent(tick=96, channel=15, data=[55, 0]),\n",
        "   midi.NoteOnEvent(tick=0, channel=15, data=[55, 80]),\n",
        "   midi.NoteOnEvent(tick=96, channel=15, data=[59, 0]),\n",
        "   midi.NoteOnEvent(tick=0, channel=15, data=[59, 80]),\n",
        "   midi.NoteOnEvent(tick=96, channel=15, data=[67, 0]),\n",
        "   midi.NoteOnEvent(tick=0, channel=15, data=[67, 80]),\n",
        "   midi.NoteOnEvent(tick=96, channel=15, data=[50, 0]),\n",
        "   midi.NoteOnEvent(tick=0, channel=15, data=[50, 80]),\n",
        "   midi.NoteOnEvent(tick=0, channel=15, data=[55, 0]),\n",
        "   midi.NoteOnEvent(tick=0, channel=15, data=[55, 60]),\n",
        "   midi.NoteOnEvent(tick=96, channel=15, data=[47, 0]),\n",
        "   midi.NoteOnEvent(tick=0, channel=15, data=[50, 0]),\n",
        "   midi.NoteOnEvent(tick=0, channel=15, data=[50, 60]),\n",
        "   midi.NoteOnEvent(tick=0, channel=15, data=[55, 0]),\n",
        "   midi.NoteOnEvent(tick=0, channel=15, data=[59, 0]),\n",
        "   midi.NoteOnEvent(tick=0, channel=15, data=[62, 80]),\n",
        "   midi.NoteOnEvent(tick=0, channel=15, data=[67, 0]),\n",
        "   midi.NoteOnEvent(tick=96, channel=15, data=[57, 80]),\n",
        "   midi.NoteOnEvent(tick=96, channel=15, data=[45, 90]),\n",
        "   midi.NoteOnEvent(tick=0, channel=15, data=[62, 0]),\n",
        "   midi.NoteOnEvent(tick=0, channel=15, data=[62, 80]),\n",
        "   midi.NoteOnEvent(tick=96, channel=15, data=[50, 0]),\n",
        "   midi.NoteOnEvent(tick=0, channel=15, data=[50, 80]),\n",
        "   midi.NoteOnEvent(tick=96, channel=15, data=[57, 0]),\n",
        "   midi.NoteOnEvent(tick=0, channel=15, data=[57, 80]),\n",
        "   midi.NoteOnEvent(tick=96, channel=15, data=[62, 0]),\n",
        "   midi.NoteOnEvent(tick=0, channel=15, data=[62, 80]),\n",
        "   midi.NoteOnEvent(tick=96, channel=15, data=[66, 80]),\n",
        "   midi.NoteOnEvent(tick=96, channel=15, data=[50, 0]),\n",
        "   midi.NoteOnEvent(tick=0, channel=15, data=[50, 80]),\n",
        "   midi.NoteOnEvent(tick=0, channel=15, data=[57, 0]),\n",
        "   midi.NoteOnEvent(tick=0, channel=15, data=[57, 60]),\n",
        "   midi.NoteOnEvent(tick=96, channel=15, data=[45, 0]),\n",
        "   midi.NoteOnEvent(tick=0, channel=15, data=[50, 0]),\n",
        "   midi.NoteOnEvent(tick=0, channel=15, data=[52, 60]),\n",
        "   midi.NoteOnEvent(tick=0, channel=15, data=[57, 0]),\n",
        "   midi.NoteOnEvent(tick=0, channel=15, data=[62, 0]),\n",
        "   midi.NoteOnEvent(tick=0, channel=15, data=[60, 80]),\n",
        "   midi.NoteOnEvent(tick=0, channel=15, data=[66, 0]),\n",
        "   midi.NoteOnEvent(tick=96, channel=15, data=[55, 80]),\n",
        "   midi.NoteOnEvent(tick=96, channel=15, data=[48, 90]),\n",
        "   midi.NoteOnEvent(tick=0, channel=15, data=[60, 0]),\n",
        "   midi.NoteOnEvent(tick=0, channel=15, data=[60, 80]),\n",
        "   midi.NoteOnEvent(tick=96, channel=15, data=[52, 0]),\n",
        "   midi.NoteOnEvent(tick=0, channel=15, data=[52, 80]),\n",
        "   midi.NoteOnEvent(tick=96, channel=15, data=[55, 0]),\n",
        "   midi.NoteOnEvent(tick=0, channel=15, data=[55, 80]),\n",
        "   midi.NoteOnEvent(tick=96, channel=15, data=[60, 0]),\n",
        "   midi.NoteOnEvent(tick=0, channel=15, data=[60, 80]),\n",
        "   midi.NoteOnEvent(tick=96, channel=15, data=[64, 80]),\n",
        "   midi.NoteOnEvent(tick=96, channel=15, data=[52, 0]),\n",
        "   midi.NoteOnEvent(tick=0, channel=15, data=[52, 80]),\n",
        "   midi.NoteOnEvent(tick=0, channel=15, data=[55, 0]),\n",
        "   midi.NoteOnEvent(tick=0, channel=15, data=[55, 60]),\n",
        "   midi.NoteOnEvent(tick=96, channel=15, data=[48, 0]),\n",
        "   midi.NoteOnEvent(tick=0, channel=15, data=[52, 0]),\n",
        "   midi.NoteOnEvent(tick=0, channel=15, data=[59, 60]),\n",
        "   midi.NoteOnEvent(tick=0, channel=15, data=[55, 0]),\n",
        "   midi.NoteOnEvent(tick=0, channel=15, data=[60, 0]),\n",
        "   midi.NoteOnEvent(tick=0, channel=15, data=[71, 80]),\n",
        "   midi.NoteOnEvent(tick=0, channel=15, data=[64, 0]),\n",
        "   midi.NoteOnEvent(tick=96, channel=15, data=[67, 80]),\n",
        "   midi.NoteOnEvent(tick=96, channel=15, data=[55, 90]),\n",
        "   midi.NoteOnEvent(tick=0, channel=15, data=[71, 0]),\n",
        "   midi.NoteOnEvent(tick=0, channel=15, data=[71, 80]),\n",
        "   midi.NoteOnEvent(tick=96, channel=15, data=[59, 0]),\n",
        "   midi.NoteOnEvent(tick=0, channel=15, data=[59, 80]),\n",
        "   midi.NoteOnEvent(tick=96, channel=15, data=[67, 0]),\n",
        "   midi.NoteOnEvent(tick=0, channel=15, data=[67, 80]),\n",
        "   midi.NoteOnEvent(tick=96, channel=15, data=[71, 0]),\n",
        "   midi.NoteOnEvent(tick=0, channel=15, data=[71, 80]),\n",
        "   midi.NoteOnEvent(tick=96, channel=15, data=[74, 80]),\n",
        "   midi.NoteOnEvent(tick=96, channel=15, data=[59, 0]),\n",
        "   midi.NoteOnEvent(tick=0, channel=15, data=[59, 80]),\n",
        "   midi.NoteOnEvent(tick=0, channel=15, data=[67, 0]),\n",
        "   midi.NoteOnEvent(tick=0, channel=15, data=[67, 60]),\n",
        "   midi.NoteOnEvent(tick=96, channel=15, data=[59, 0]),\n",
        "   midi.NoteOnEvent(tick=0, channel=15, data=[59, 60]),\n",
        "   midi.NoteOnEvent(tick=0, channel=15, data=[71, 0]),\n",
        "   midi.NoteOnEvent(tick=0, channel=15, data=[71, 80]),\n",
        "   midi.NoteOnEvent(tick=96, channel=15, data=[67, 0]),\n",
        "   midi.NoteOnEvent(tick=0, channel=15, data=[67, 80]),\n",
        "   midi.NoteOnEvent(tick=96, channel=15, data=[55, 0]),\n",
        "   midi.NoteOnEvent(tick=0, channel=15, data=[55, 90]),\n",
        "   midi.NoteOnEvent(tick=0, channel=15, data=[71, 0]),\n",
        "   midi.NoteOnEvent(tick=0, channel=15, data=[71, 80]),\n",
        "   midi.NoteOnEvent(tick=96, channel=15, data=[59, 0]),\n",
        "   midi.NoteOnEvent(tick=0, channel=15, data=[59, 80]),\n",
        "   midi.NoteOnEvent(tick=96, channel=15, data=[67, 0]),\n",
        "   midi.NoteOnEvent(tick=0, channel=15, data=[67, 80]),\n",
        "   midi.NoteOnEvent(tick=96, channel=15, data=[71, 0]),\n",
        "   midi.NoteOnEvent(tick=0, channel=15, data=[71, 80]),\n",
        "   midi.NoteOnEvent(tick=96, channel=15, data=[74, 0]),\n",
        "   midi.NoteOnEvent(tick=0, channel=15, data=[74, 80]),\n",
        "   midi.NoteOnEvent(tick=96, channel=15, data=[59, 0]),\n",
        "   midi.NoteOnEvent(tick=0, channel=15, data=[59, 80]),\n",
        "   midi.NoteOnEvent(tick=0, channel=15, data=[67, 0]),\n",
        "   midi.NoteOnEvent(tick=0, channel=15, data=[67, 60]),\n",
        "   midi.NoteOnEvent(tick=96, channel=15, data=[55, 0]),\n",
        "   midi.NoteOnEvent(tick=0, channel=15, data=[59, 0]),\n",
        "   midi.NoteOnEvent(tick=0, channel=15, data=[62, 60]),\n",
        "   midi.NoteOnEvent(tick=0, channel=15, data=[67, 0]),\n",
        "   midi.NoteOnEvent(tick=0, channel=15, data=[71, 0]),\n",
        "   midi.NoteOnEvent(tick=0, channel=15, data=[69, 80]),\n",
        "   midi.NoteOnEvent(tick=96, channel=15, data=[66, 80]),\n",
        "   midi.NoteOnEvent(tick=96, channel=15, data=[54, 90]),\n",
        "   midi.NoteOnEvent(tick=0, channel=15, data=[69, 0]),\n",
        "   midi.NoteOnEvent(tick=0, channel=15, data=[69, 80]),\n",
        "   midi.NoteOnEvent(tick=96, channel=15, data=[62, 0]),\n",
        "   midi.NoteOnEvent(tick=0, channel=15, data=[62, 80]),\n",
        "   midi.NoteOnEvent(tick=96, channel=15, data=[66, 0]),\n",
        "   midi.NoteOnEvent(tick=0, channel=15, data=[66, 80]),\n",
        "   midi.NoteOnEvent(tick=96, channel=15, data=[69, 0]),\n",
        "   midi.NoteOnEvent(tick=0, channel=15, data=[69, 80]),\n",
        "   midi.NoteOnEvent(tick=96, channel=15, data=[74, 0]),\n",
        "   midi.NoteOnEvent(tick=0, channel=15, data=[74, 80]),\n",
        "   midi.NoteOnEvent(tick=96, channel=15, data=[62, 0]),\n",
        "   midi.NoteOnEvent(tick=0, channel=15, data=[62, 80]),\n",
        "   midi.NoteOnEvent(tick=0, channel=15, data=[66, 0]),\n",
        "   midi.NoteOnEvent(tick=0, channel=15, data=[66, 60]),\n",
        "   midi.NoteOnEvent(tick=96, channel=15, data=[54, 0]),\n",
        "   midi.NoteOnEvent(tick=0, channel=15, data=[62, 0]),\n",
        "   midi.NoteOnEvent(tick=0, channel=15, data=[60, 60]),\n",
        "   midi.NoteOnEvent(tick=0, channel=15, data=[66, 0]),\n",
        "   midi.NoteOnEvent(tick=0, channel=15, data=[69, 0]),\n",
        "   midi.NoteOnEvent(tick=0, channel=15, data=[67, 80]),\n",
        "   midi.NoteOnEvent(tick=0, channel=15, data=[74, 0]),\n",
        "   midi.NoteOnEvent(tick=96, channel=15, data=[64, 80]),\n",
        "   midi.NoteOnEvent(tick=96, channel=15, data=[55, 90]),\n",
        "   midi.NoteOnEvent(tick=0, channel=15, data=[67, 0]),\n",
        "   midi.NoteOnEvent(tick=0, channel=15, data=[67, 80]),\n",
        "   midi.NoteOnEvent(tick=96, channel=15, data=[60, 0]),\n",
        "   midi.NoteOnEvent(tick=0, channel=15, data=[60, 80]),\n",
        "   midi.NoteOnEvent(tick=96, channel=15, data=[64, 0]),\n",
        "   midi.NoteOnEvent(tick=0, channel=15, data=[64, 80]),\n",
        "   midi.NoteOnEvent(tick=96, channel=15, data=[67, 0]),\n",
        "   midi.NoteOnEvent(tick=0, channel=15, data=[67, 80]),\n",
        "   midi.NoteOnEvent(tick=96, channel=15, data=[72, 80]),\n",
        "   midi.NoteOnEvent(tick=96, channel=15, data=[60, 0]),\n",
        "   midi.NoteOnEvent(tick=0, channel=15, data=[60, 80]),\n",
        "   midi.NoteOnEvent(tick=0, channel=15, data=[64, 0]),\n",
        "   midi.NoteOnEvent(tick=0, channel=15, data=[64, 60]),\n",
        "   midi.NoteOnEvent(tick=96, channel=15, data=[55, 0]),\n",
        "   midi.NoteOnEvent(tick=0, channel=15, data=[60, 0]),\n",
        "   midi.NoteOnEvent(tick=0, channel=15, data=[64, 0]),\n",
        "   midi.NoteOnEvent(tick=0, channel=15, data=[67, 0]),\n",
        "   midi.NoteOnEvent(tick=0, channel=15, data=[72, 0]),\n",
        "   midi.NoteOnEvent(tick=0, channel=15, data=[59, 60]),\n",
        "   midi.NoteOnEvent(tick=0, channel=15, data=[71, 80]),\n",
        "   midi.NoteOnEvent(tick=96, channel=15, data=[67, 80]),\n",
        "   midi.NoteOnEvent(tick=96, channel=15, data=[55, 90]),\n",
        "   midi.NoteOnEvent(tick=0, channel=15, data=[71, 0]),\n",
        "   midi.NoteOnEvent(tick=0, channel=15, data=[71, 80]),\n",
        "   midi.NoteOnEvent(tick=96, channel=15, data=[59, 0]),\n",
        "   midi.NoteOnEvent(tick=0, channel=15, data=[59, 80]),\n",
        "   midi.NoteOnEvent(tick=0, channel=15, data=[74, 40]),\n",
        "   midi.NoteOnEvent(tick=96, channel=15, data=[67, 0]),\n",
        "   midi.NoteOnEvent(tick=0, channel=15, data=[67, 80]),\n",
        "   midi.NoteOnEvent(tick=0, channel=15, data=[71, 0]),\n",
        "   midi.NoteOnEvent(tick=0, channel=15, data=[71, 40]),\n",
        "   midi.NoteOnEvent(tick=96, channel=15, data=[67, 0]),\n",
        "   midi.NoteOnEvent(tick=0, channel=15, data=[67, 40]),\n",
        "   midi.NoteOnEvent(tick=0, channel=15, data=[71, 0]),\n",
        "   midi.NoteOnEvent(tick=0, channel=15, data=[71, 80]),\n",
        "   midi.NoteOnEvent(tick=96, channel=15, data=[59, 0]),\n",
        "   midi.NoteOnEvent(tick=0, channel=15, data=[59, 40]),\n",
        "   midi.NoteOnEvent(tick=0, channel=15, data=[74, 0]),\n",
        "   midi.NoteOnEvent(tick=0, channel=15, data=[74, 80]),\n",
        "   midi.NoteOnEvent(tick=96, channel=15, data=[59, 0]),\n",
        "   midi.NoteOnEvent(tick=0, channel=15, data=[59, 80]),\n",
        "   midi.NoteOnEvent(tick=0, channel=15, data=[67, 0]),\n",
        "   midi.NoteOnEvent(tick=0, channel=15, data=[67, 60]),\n",
        "   midi.NoteOnEvent(tick=96, channel=15, data=[59, 0]),\n",
        "   midi.NoteOnEvent(tick=0, channel=15, data=[59, 60]),\n",
        "   midi.NoteOnEvent(tick=0, channel=15, data=[71, 0]),\n",
        "   midi.NoteOnEvent(tick=0, channel=15, data=[71, 80]),\n",
        "   midi.NoteOnEvent(tick=96, channel=15, data=[67, 0]),\n",
        "   midi.NoteOnEvent(tick=0, channel=15, data=[67, 80]),\n",
        "   midi.NoteOnEvent(tick=96, channel=15, data=[55, 0]),\n",
        "   midi.NoteOnEvent(tick=0, channel=15, data=[55, 90]),\n",
        "   midi.NoteOnEvent(tick=0, channel=15, data=[71, 0]),\n",
        "   midi.NoteOnEvent(tick=0, channel=15, data=[71, 80]),\n",
        "   midi.NoteOnEvent(tick=96, channel=15, data=[59, 0]),\n",
        "   midi.NoteOnEvent(tick=0, channel=15, data=[59, 80]),\n",
        "   midi.NoteOnEvent(tick=0, channel=15, data=[74, 0]),\n",
        "   midi.NoteOnEvent(tick=0, channel=15, data=[74, 40]),\n",
        "   midi.NoteOnEvent(tick=96, channel=15, data=[67, 0]),\n",
        "   midi.NoteOnEvent(tick=0, channel=15, data=[67, 80]),\n",
        "   midi.NoteOnEvent(tick=0, channel=15, data=[71, 0]),\n",
        "   midi.NoteOnEvent(tick=0, channel=15, data=[71, 40]),\n",
        "   midi.NoteOnEvent(tick=96, channel=15, data=[67, 0]),\n",
        "   midi.NoteOnEvent(tick=0, channel=15, data=[67, 40]),\n",
        "   midi.NoteOnEvent(tick=0, channel=15, data=[71, 0]),\n",
        "   midi.NoteOnEvent(tick=0, channel=15, data=[71, 80]),\n",
        "   midi.NoteOnEvent(tick=96, channel=15, data=[59, 0]),\n",
        "   midi.NoteOnEvent(tick=0, channel=15, data=[59, 40]),\n",
        "   midi.NoteOnEvent(tick=0, channel=15, data=[74, 0]),\n",
        "   midi.NoteOnEvent(tick=0, channel=15, data=[74, 80]),\n",
        "   midi.NoteOnEvent(tick=96, channel=15, data=[59, 0]),\n",
        "   midi.NoteOnEvent(tick=0, channel=15, data=[59, 80]),\n",
        "   midi.NoteOnEvent(tick=0, channel=15, data=[67, 0]),\n",
        "   midi.NoteOnEvent(tick=0, channel=15, data=[67, 60]),\n",
        "   midi.NoteOnEvent(tick=96, channel=15, data=[55, 0]),\n",
        "   midi.NoteOnEvent(tick=0, channel=15, data=[59, 0]),\n",
        "   midi.NoteOnEvent(tick=0, channel=15, data=[62, 60]),\n",
        "   midi.NoteOnEvent(tick=0, channel=15, data=[67, 0]),\n",
        "   midi.NoteOnEvent(tick=0, channel=15, data=[71, 0]),\n",
        "   midi.NoteOnEvent(tick=0, channel=15, data=[69, 80]),\n",
        "   midi.NoteOnEvent(tick=96, channel=15, data=[66, 80]),\n",
        "   midi.NoteOnEvent(tick=96, channel=15, data=[54, 90]),\n",
        "   midi.NoteOnEvent(tick=0, channel=15, data=[69, 0]),\n",
        "   midi.NoteOnEvent(tick=0, channel=15, data=[69, 80]),\n",
        "   midi.NoteOnEvent(tick=96, channel=15, data=[62, 0]),\n",
        "   midi.NoteOnEvent(tick=0, channel=15, data=[62, 80]),\n",
        "   midi.NoteOnEvent(tick=0, channel=15, data=[74, 0]),\n",
        "   midi.NoteOnEvent(tick=0, channel=15, data=[74, 40]),\n",
        "   midi.NoteOnEvent(tick=96, channel=15, data=[66, 0]),\n",
        "   midi.NoteOnEvent(tick=0, channel=15, data=[66, 80]),\n",
        "   midi.NoteOnEvent(tick=0, channel=15, data=[69, 0]),\n",
        "   midi.NoteOnEvent(tick=0, channel=15, data=[69, 40]),\n",
        "   midi.NoteOnEvent(tick=96, channel=15, data=[66, 0]),\n",
        "   midi.NoteOnEvent(tick=0, channel=15, data=[66, 40]),\n",
        "   midi.NoteOnEvent(tick=0, channel=15, data=[69, 0]),\n",
        "   midi.NoteOnEvent(tick=0, channel=15, data=[69, 80]),\n",
        "   midi.NoteOnEvent(tick=96, channel=15, data=[62, 0]),\n",
        "   midi.NoteOnEvent(tick=0, channel=15, data=[62, 40]),\n",
        "   midi.NoteOnEvent(tick=0, channel=15, data=[74, 0]),\n",
        "   midi.NoteOnEvent(tick=0, channel=15, data=[74, 80]),\n",
        "   midi.NoteOnEvent(tick=96, channel=15, data=[62, 0]),\n",
        "   midi.NoteOnEvent(tick=0, channel=15, data=[62, 80]),\n",
        "   midi.NoteOnEvent(tick=0, channel=15, data=[66, 0]),\n",
        "   midi.NoteOnEvent(tick=0, channel=15, data=[66, 60]),\n",
        "   midi.NoteOnEvent(tick=96, channel=15, data=[54, 0]),\n",
        "   midi.NoteOnEvent(tick=0, channel=15, data=[62, 0]),\n",
        "   midi.NoteOnEvent(tick=0, channel=15, data=[60, 60]),\n",
        "   midi.NoteOnEvent(tick=0, channel=15, data=[66, 0]),\n",
        "   midi.NoteOnEvent(tick=0, channel=15, data=[69, 0]),\n",
        "   midi.NoteOnEvent(tick=0, channel=15, data=[67, 80]),\n",
        "   midi.NoteOnEvent(tick=0, channel=15, data=[74, 0]),\n",
        "   midi.NoteOnEvent(tick=96, channel=15, data=[64, 80]),\n",
        "   midi.NoteOnEvent(tick=96, channel=15, data=[55, 90]),\n",
        "   midi.NoteOnEvent(tick=0, channel=15, data=[67, 0]),\n",
        "   midi.NoteOnEvent(tick=0, channel=15, data=[67, 80]),\n",
        "   midi.NoteOnEvent(tick=96, channel=15, data=[60, 0]),\n",
        "   midi.NoteOnEvent(tick=0, channel=15, data=[60, 80]),\n",
        "   midi.NoteOnEvent(tick=0, channel=15, data=[72, 40]),\n",
        "   midi.NoteOnEvent(tick=96, channel=15, data=[64, 0]),\n",
        "   midi.NoteOnEvent(tick=0, channel=15, data=[64, 80]),\n",
        "   midi.NoteOnEvent(tick=0, channel=15, data=[67, 0]),\n",
        "   midi.NoteOnEvent(tick=0, channel=15, data=[67, 40]),\n",
        "   midi.NoteOnEvent(tick=96, channel=15, data=[64, 0]),\n",
        "   midi.NoteOnEvent(tick=0, channel=15, data=[64, 40]),\n",
        "   midi.NoteOnEvent(tick=0, channel=15, data=[67, 0]),\n",
        "   midi.NoteOnEvent(tick=0, channel=15, data=[67, 80]),\n",
        "   midi.NoteOnEvent(tick=96, channel=15, data=[60, 0]),\n",
        "   midi.NoteOnEvent(tick=0, channel=15, data=[60, 40]),\n",
        "   midi.NoteOnEvent(tick=0, channel=15, data=[72, 0]),\n",
        "   midi.NoteOnEvent(tick=0, channel=15, data=[72, 80]),\n",
        "   midi.NoteOnEvent(tick=96, channel=15, data=[60, 0]),\n",
        "   midi.NoteOnEvent(tick=0, channel=15, data=[60, 80]),\n",
        "   midi.NoteOnEvent(tick=0, channel=15, data=[64, 0]),\n",
        "   midi.NoteOnEvent(tick=0, channel=15, data=[64, 60]),\n",
        "   midi.NoteOnEvent(tick=96, channel=15, data=[55, 0]),\n",
        "   midi.NoteOnEvent(tick=0, channel=15, data=[60, 0]),\n",
        "   midi.NoteOnEvent(tick=0, channel=15, data=[64, 0]),\n",
        "   midi.NoteOnEvent(tick=0, channel=15, data=[67, 0]),\n",
        "   midi.NoteOnEvent(tick=0, channel=15, data=[72, 0]),\n",
        "   midi.ControlChangeEvent(tick=768, channel=15, data=[123, 0]),\n",
        "   midi.EndOfTrackEvent(tick=0, data=[])])])"
       ]
      }
     ],
     "prompt_number": 3
    },
    {
     "cell_type": "code",
     "collapsed": false,
     "input": [
      "test_pattern = midi.Pattern(format=1, resolution=1000, tracks=[])"
     ],
     "language": "python",
     "metadata": {},
     "outputs": [],
     "prompt_number": 9
    },
    {
     "cell_type": "code",
     "collapsed": false,
     "input": [
      "track0 = [\n",
      "  midi.TrackNameEvent(tick=0, text='TestExampleFile'),\n",
      "  midi.TimeSignatureEvent(tick=0, data=[3, 2, 24, 8]),\n",
      "  midi.SetTempoEvent(tick=0, data=[7, 161, 32]),\n",
      "  midi.EndOfTrackEvent(), \n",
      "]\n",
      "test_pattern.append(track0)"
     ],
     "language": "python",
     "metadata": {},
     "outputs": [],
     "prompt_number": 10
    },
    {
     "cell_type": "code",
     "collapsed": false,
     "input": [
      "track1 = [\n",
      "  midi.TrackNameEvent(tick=0, text='Easy Bass Line'),\n",
      "  midi.NoteOnEvent(tick=0, velocity=20, pitch=pitch2n.C_2n),\n",
      "  midi.NoteOffEvent(tick=1000, pitch=pitch2n.C_2n),\n",
      "  midi.NoteOnEvent(tick=0, velocity=20, pitch=pitch2n.C_1n),\n",
      "  midi.NoteOffEvent(tick=1000, pitch=pitch2n.C_1n),\n",
      "  midi.NoteOnEvent(tick=0, velocity=20, pitch=pitch2n.C_0),\n",
      "  midi.NoteOffEvent(tick=1000, pitch=pitch2n.C_0),\n",
      "  midi.NoteOnEvent(tick=0, velocity=20, pitch=pitch2n.C_1),\n",
      "  midi.NoteOffEvent(tick=1000, pitch=pitch2n.C_1),\n",
      "  midi.NoteOnEvent(tick=0, velocity=20, pitch=pitch2n.C_2),\n",
      "  midi.NoteOffEvent(tick=1000, pitch=pitch2n.C_2),\n",
      "  midi.NoteOnEvent(tick=0, velocity=20, pitch=pitch2n.C_3),\n",
      "  midi.NoteOffEvent(tick=1000, pitch=pitch2n.C_3),\n",
      "  midi.NoteOnEvent(tick=0, velocity=20, pitch=pitch2n.C_4),\n",
      "  midi.NoteOffEvent(tick=1000, pitch=pitch2n.C_4),\n",
      "  midi.NoteOnEvent(tick=0, velocity=20, pitch=pitch2n.C_5),\n",
      "  midi.NoteOffEvent(tick=1000, pitch=pitch2n.C_5),\n",
      "  midi.NoteOnEvent(tick=0, velocity=20, pitch=pitch2n.C_6),\n",
      "  midi.NoteOffEvent(tick=1000, pitch=pitch2n.C_6),\n",
      "  midi.NoteOnEvent(tick=0, velocity=20, pitch=pitch2n.C_7),\n",
      "  midi.NoteOffEvent(tick=1000, pitch=pitch2n.C_7),\n",
      "  midi.NoteOnEvent(tick=0, velocity=20, pitch=pitch2n.C_8),\n",
      "  midi.NoteOffEvent(tick=1000, pitch=pitch2n.C_8),\n",
      "  midi.EndOfTrackEvent(), \n",
      "]\n",
      "test_pattern.append(track1)"
     ],
     "language": "python",
     "metadata": {},
     "outputs": [],
     "prompt_number": 11
    },
    {
     "cell_type": "code",
     "collapsed": false,
     "input": [
      "midi.write_midifile(\"easy_bass1.mid\", test_pattern)"
     ],
     "language": "python",
     "metadata": {},
     "outputs": [],
     "prompt_number": 12
    },
    {
     "cell_type": "code",
     "collapsed": false,
     "input": [
      "for evt in track1:\n",
      "    if type(evt) is midi.NoteOnEvent:\n",
      "        evt.velocity = random.randint(10, 127)\n",
      "        print evt\n",
      "test_pattern[1] = track1"
     ],
     "language": "python",
     "metadata": {},
     "outputs": [
      {
       "output_type": "stream",
       "stream": "stdout",
       "text": [
        "midi.NoteOnEvent(tick=0, channel=0, data=[43, 87])\n",
        "midi.NoteOnEvent(tick=0, channel=0, data=[43, 16])\n",
        "midi.NoteOnEvent(tick=0, channel=0, data=[43, 11])\n",
        "midi.NoteOnEvent(tick=0, channel=0, data=[43, 14])\n",
        "midi.NoteOnEvent(tick=0, channel=0, data=[43, 115])\n",
        "midi.NoteOnEvent(tick=0, channel=0, data=[43, 19])\n",
        "midi.NoteOnEvent(tick=0, channel=0, data=[43, 54])\n"
       ]
      }
     ],
     "prompt_number": 18
    },
    {
     "cell_type": "code",
     "collapsed": false,
     "input": [
      "pattern = midi.read_midifile('./exported34.mid')"
     ],
     "language": "python",
     "metadata": {},
     "outputs": [],
     "prompt_number": 60
    },
    {
     "cell_type": "code",
     "collapsed": false,
     "input": [
      "pattern"
     ],
     "language": "python",
     "metadata": {},
     "outputs": [
      {
       "metadata": {},
       "output_type": "pyout",
       "prompt_number": 61,
       "text": [
        "midi.Pattern(format=1, resolution=480, tracks=\\\n",
        "[midi.Track(\\\n",
        "  [midi.TrackNameEvent(tick=0, text='easy_bass1', data=[101, 97, 115, 121, 95, 98, 97, 115, 115, 49]),\n",
        "   midi.NoteOnEvent(tick=0, channel=0, data=[43, 20]),\n",
        "   midi.NoteOffEvent(tick=480, channel=0, data=[43, 20]),\n",
        "   midi.NoteOnEvent(tick=0, channel=0, data=[43, 20]),\n",
        "   midi.NoteOffEvent(tick=480, channel=0, data=[43, 20]),\n",
        "   midi.NoteOnEvent(tick=0, channel=0, data=[43, 20]),\n",
        "   midi.NoteOffEvent(tick=480, channel=0, data=[43, 20]),\n",
        "   midi.EndOfTrackEvent(tick=0, data=[])])])"
       ]
      }
     ],
     "prompt_number": 61
    },
    {
     "cell_type": "code",
     "collapsed": false,
     "input": [
      "480 /2.0 /2.0 /2.0/ 2.0/ 2.0"
     ],
     "language": "python",
     "metadata": {},
     "outputs": [
      {
       "metadata": {},
       "output_type": "pyout",
       "prompt_number": 65,
       "text": [
        "15.0"
       ]
      }
     ],
     "prompt_number": 65
    },
    {
     "cell_type": "code",
     "collapsed": false,
     "input": [
      "midi.C_0"
     ],
     "language": "python",
     "metadata": {},
     "outputs": [
      {
       "metadata": {},
       "output_type": "pyout",
       "prompt_number": 78,
       "text": [
        "0"
       ]
      }
     ],
     "prompt_number": 78
    },
    {
     "cell_type": "code",
     "collapsed": false,
     "input": [],
     "language": "python",
     "metadata": {},
     "outputs": []
    }
   ],
   "metadata": {}
  }
 ]
}